/* XPM */
static char *result[] = {
/* columns rows colors chars-per-pixel */
"38 20 6 1 ",
"  c #34112E",
". c #531A1F",
"X c #762D1B",
"o c #A6502A",
"O c #E3804A",
"+ c None",
/* pixels */
"++++++++++++++++++++++++++++++++++++++",
"++++++++++++++++++++++++++++++++++++++",
"++++++++++++++++++++++++++++++++++++++",
"++++++++++++++++++++++++++++++++++++++",
"++++++++++++     +++++++++++++++++++++",
"+++++++++++++     OOoOO+++++++++++++++",
"+++++ +++++++  ooooooooOO+++++++++++++",
"++++  +++++++OOoooOOOOXXoOO+++++++++++",
"+++   +++++ooooooooooXX XoOO++++++++++",
"+++    +++OOoOOOoOOoXX O XXoO+++++++++",
"+++ .....oooo    XXX.XX XXXXXoooOO++++",
"+++     .XXX        X.XXXX....XXX+++++",
"+++  ...  ....    XX........++++++++++",
"+++     ++++............++++++++++++++",
"++++ . ++++++.....  ..++++++++++++++++",
"++++  ++++++++++     +++++++++++++++++",
"++++ +++++++++++   +++++++++++++++++++",
"++++++++++++++++++++++++++++++++++++++",
"++++++++++++++++++++++++++++++++++++++",
"++++++++++++++++++++++++++++++++++++++"
};
