/* XPM */
static char *result[] = {
/* columns rows colors chars-per-pixel */
"45 45 9 1 ",
"  c #0D1A20",
". c #152627",
"X c #12372D",
"o c #265D33",
"O c #204E43",
"+ c #266355",
"@ c #558C36",
"# c #388C78",
"$ c None",
/* pixels */
"$$$$$$$$$$$$$$$$$$$$$$$$$$$$$$$$$$$$$$$$$$$$$",
"$$$$$$$$$$$$$$$$$$$$$$#$$$$$$$$$$$$$$$$$$$$$$",
"$$$$$$$$$$$$$$$$$$$$$$#$$$$$$$$$$$$$$$$$$$$$$",
"$$$$$$$$$$$$$$$$$$$$$$##$$$$$$$$$$$$$$$$$$$$$",
"$$$$$$$$$$$$$$$$$$$$$#X#$$$$$$$$$$$$$$$$$$$$$",
"$$$$$$$$$$$$$$$$$$$$$#XO#$$$$$$$$$$$$$$$$$$$$",
"$$$$$$$$$$$$$$$$$$$$#OXO#$$$$$$$$$$$$$$$$$$$$",
"$$$$$$$$$$$$$$$$$$$$#XXX#$$$$$$$$$$$$$$$$$$$$",
"$$$$$$$$$$$$$$$$$$########$$$$$$$$$$$$$$$$$$$",
"$$$$$$$$$$$$$$$###++++++++###$$$$$$$#$$$$$$$$",
"$$$$$##$$$$$$##+++OOXXXXXO+++##$$$$#+$$$$$$$$",
"$$$$$+##$$$$##+OOXXX      XOO+##$$#O+$$$$$$$$",
"$$$$$$X##$$#++OXX.........  XX++##OO+$$$$$$$$",
"$$$$$$+X###+##X...XXXXX....... X+#O+#$$$$$$$$",
"$$$$$$+XX##++O#X.XooooXXXXXX....O+#+$$$$$$$$$",
"$$$$$$$+X#X+#O#..Xo@@oXXXXXXXX...O+#$$$$$$$$$",
"$$$$$$$+XXXX#O#..Xo@@oXooooooXXX. O##$$$$$$$$",
"$$$$$$$+XXX#OO+..Xoo@oooo@@oooXX..O+#$$$$$$$$",
"$$$$$$$#+++OX#X..XXoooo@@@@@ooXXX. O#$$$$$$$$",
"$$$$$$$#XXXXO#.....XXo@@@@@@ooXXX. O+$$$$$$$$",
"$$$$$$#++++++...XXXoXooo@@@oooXXX.. O+$$$$$$$",
"$$$$$$#+...... .XXoo@@o@@@@ooXXXX.. O++$$$$$$",
"$$$$$+#OXX.XoX .XXoo@@o@@oooXXXXX.. O+###++$$",
"$++###+OXX ... ..XXoooooooooooXX... O++OXX$$$",
"$$XXO+#OOX      ...Xooooooo@@oXX..  O+OX$$$$$",
"$$$$XO+OOX ..... ..XXoooooo@@oXX.. XO+X$$$$$$",
"$$$$$X+OXX .XXo.. ..XXooXXoooXX..  XO+$$$$$$$",
"$$$$$$+OXX ..XoX. .   XXX.XXXX.. ..XO+$$$$$$$",
"$$$$$$$OXX  .XX.   ... ...........  +$$$$$$$$",
"$$$$$$$+OX   ...  .XX.  ......#### X+$$$$$$$$",
"$$$$$$$+OX       .XooX..... .#++++#O+$$$$$$$$",
"$$$$$$$$+O  ..   .XooXX.    +XXXXX++$$$$$$$$$",
"$$$$$$$++OX  ..  .XooXX.   .+XX++XX+$$$$$$$$$",
"$$$$$$$$#+OX ... ..XXX..  ..+..+++X$$$$$$$$$$",
"$$$$$$$$##+OX  .  .....   ...+.XX+#X$$$$$$$$$",
"$$$$$$$$#+#+OX                ...X+#$$$$$$$$$",
"$$$$$$$#+XX#+OX           ....OO$XX+$$$$$$$$$",
"$$$$$$$XX$$$$OOXX..   XXX..X..+$$$$$$$$$$$$$$",
"$$$$$$$$$$$$$$$OOX..XXXXXX+X..+$$$$$$$$$$$$$$",
"$$$$$$$$$$$$$$$$OX.XOOOOOO$+X.+$$$$$$$$$$$$$$",
"$$$$$$$$$$$$$$$$OXXXO$$$$$$$+X+$$$$$$$$$$$$$$",
"$$$$$$$$$$$$$$$$$+XO$$$$$$$$$++$$$$$$$$$$$$$$",
"$$$$$$$$$$$$$$$$$+X+$$$$$$$$$$$$$$$$$$$$$$$$$",
"$$$$$$$$$$$$$$$$$$+$$$$$$$$$$$$$$$$$$$$$$$$$$",
"$$$$$$$$$$$$$$$$$$$$$$$$$$$$$$$$$$$$$$$$$$$$$"
};
