/* XPM */
static char *result[] = {
/* columns rows colors chars-per-pixel */
"52 85 6 1 ",
"  c #0D1A20",
". c #152627",
"X c #12372D",
"o c #265D33",
"O c #558C36",
"+ c None",
/* pixels */
"++++++++++++++++++++++++++++++++++++++++++++++++++++",
"++++++++++++++++++++++++++++++++++++++++++++++++++++",
"++++++++++++++++++++++++++++++++++++++++++++++++++++",
"+++                            +++++++++++++++++++++",
"+++                         X.........++++++++++++++",
"+++           ..   XX       .....   ...+++++++++++++",
"+++          .    ..XX   XXXX....     .+++++++++++++",
"+++           ..  ..XXX  XXXXX..XX   X...+++++++++++",
"+++            ..  .XXXX XXXooX..XooX....+++++++++++",
"+++             .. .oXXXX XXooo.....    ...+++++++++",
"+++             .. ..ooXX ..XooX.Xo.      .X++++++++",
"+++             ..  ..oXXo...ooXXooOO      X++++++++",
"+++              .   ..ooo......XoooOOO    oX+++++++",
"+++         ..   .   ...ooo.....X.ooooOOOooXX+++++++",
"+++         ...  .  ....ooo .......oooooooXXX+++++++",
"+++      ... ... .......Xooo XX.....oooooXXXX+++++++",
"+++       .. .........XXXXXo XX......oXXXXX.++++++++",
"+++       ..  X.......XXXXX ..XXXX...XXX...+++++++++",
"+++        ...XXX....XXooXX....XXXXX......++++++++++",
"+++        ....XXX...XXXooo....XoOOOXXX..XX+++++++++",
"+++         ....XXX..XXXooooooo.ooOOOOOXXXXX++++++++",
"+++          ....XX..XXXXooooooo.ooOOOOOOooX++++++++",
"+++           ...    ..XXXXooOOoO.ooooOOOOoX++++++++",
"+++           ...     .XXXoXXoooOOoooooOOoXX++++++++",
"+++           ....     XXXooXooooOooXXoooXX+++++++++",
"+++           ....XX     .oooOoooooX...XXX++++++++++",
"+++       .   .....XXX     oooOooXXX..XX++++++++++++",
"+++       ..   ......XX     ooOOXXX...XX++++++++++++",
"+++        ..  ..  ...XXX   ooOOOX...XXX++++++++++++",
"+++     ..  .XX     ...XXX   oOOO....XX+++++++++++++",
"+++      ... .XX     ...XXXX.ooOO........+++++++++++",
"+++     . .. ..X.   .......XXoooOo.........+++++++++",
"+++     .. ....XXX  .......XXoooOoo...XX.....+++++++",
"+++     ...X....XXX .. ....XXXooooo.oXX    ...++++++",
"+++      ...XX..XXXX..  ....XXooXX..ooX      .XX++++",
"+++     . ..XX....XX..   ...XXXXXX..ooX       oXX+++",
"+++         .XX....X..    ...XXXXX..XooX      ooX+++",
"+++         .XXX....X.     ..XXXXX...oooO     ooXX++",
"+++            XX.....     ...XXX.   .oOOOO   ooXX++",
"+++             X.......   ...XX..    .oOOOOOOooXX++",
"+++             ...    .     XX..XX    .XXOoooooXX++",
"+++         .. ...           X...XXo   ..XXXoooXXX++",
"+++          . ...  ...   ..  ...XXo   o.XXXooXXXX++",
"+++          ....  ....    .. ...XXooooX..XXooX...++",
"+++          ....  ....     . ....XooooX..XXXXX...++",
"+++                ...X     ......XXoXX...XXXXX..+++",
"+++                ...XX   XX. ...XXXX...........+++",
"+++              .XX ..XXXXXX. ...XXXXXXXX......++++",
"+++             ..XX   .XXXX.. .....XXXXXXX.....++++",
"+++             ...X    ...... ...XXXXXXXX.....+++++",
"+++         ..  ....XX   ...   ...............++++++",
"+++         ...  .....XXXX      ...XXXXXX....+++++++",
"+++          ... ........   .   ....XXXXXX..++++++++",
"+++          ...  ......    .   ....XX......++++++++",
"+++           ..   ....  ....   ..XXX......+++++++++",
"+++            ..  .... ....   ...XX..    ++++++++++",
"+++            ... .. ...    .......     +++++++++++",
"+++             ..          .......     ++++++++++++",
"+++             .   ..    ..... ... .. +++++++++++++",
"+++                 .       .... ....   .+++++++++++",
"+++               ...       XX..  ...    .++++++++++",
"+++               ...        XX.  ..X    OX+++++++++",
"+++              ....        XX.. ..X    OX+++++++++",
"+++             .....        XXX. .XXOOOOoXX++++++++",
"+++             .....XXXoooooXX.. XXXoOOOoXX++++++++",
"+++               ...XXooooXXX... XXooooooXX++++++++",
"+++                ....XXXXX....  .XXoooooXX++++++++",
"+++                .....X.......  ..XXooXXX.++++++++",
"+++                .....XX....    ....X.....++++++++",
"+++                .....XXX..     ...XXXXX..++++++++",
"+++                .....XXXX.    ....XXXXX..++++++++",
"+++                 .....XXX     .....XXXX..++++++++",
"+++                 ......XX   ........XXX..++++++++",
"+++                   .....X   ........XXX.+++++++++",
"+++                   ....     .........X..+++++++++",
"+++                             .... .....++++++++++",
"+++                             ..   .....++++++++++",
"+++                                 ......++++++++++",
"+++                               .......+++++++++++",
"+++                              ........+++++++++++",
"+++                              .......++++++++++++",
"+++                              ......+++++++++++++",
"+++                              ....+++++++++++++++",
"++++++++++++++++++++++++++++++++++++++++++++++++++++",
"++++++++++++++++++++++++++++++++++++++++++++++++++++"
};
