/* XPM */
static char *result[] = {
/* columns rows colors chars-per-pixel */
"84 60 6 1 ",
"  c #0D1A20",
". c #152627",
"X c #12372D",
"o c #265D33",
"O c #558C36",
"+ c None",
/* pixels */
"++++++++++++++++++++++++++++++++++++++++++++++++++++++++++++++++++++++++++++++++++++",
"++++++++++++++++++++++++++++++++++++++++++++++++++++++++++++++++++++++++++++++++++++",
"+++++++++++++++++++++++++++++++++XXXXXX+++++++++++++++++++++++++++++++++++++++++++++",
"+++++++++++++++++++OOOO+++++oo++XXooooooX+++++++++++++++++++++++++++++++++++++++++++",
"+++++++++++++ooo+++OOOOO+++oooo+oooooXooOOoX++++++++++++++++++++++++++++++++++++++++",
"++++++++ooooooooooOOOOOOO+ooooooooooXXooOOOOOOo+++++++++++++++++++++++++++++++++++++",
"+++++XXXooooOOOoXXOOOOOOO+ooo.oooooXXooOOOOOOOOOO+++++++++++++++++++++++++++++++++++",
"+++++XOOoooOOOOOXXOOOOOOOOooX.....XXXXoOOOOOOOOOOOOO+++++++++++++ooooooooo++++++++++",
"++++oOOOXXoXXOOOoXXOOOOOOoooo.....XXXXXOOOOOoooOOOOOoooo+++XXXXXooooooooooo+....++++",
"++oooOOOXXXXXOOOXXXoOOOOooOoooo.XXXXXXXoOOOOoooooOOOoooooXXXXXXXXXooOOOoooo+....++++",
"++oooOOoXXXXXOOOXXXXoOOooooooooo.....XXXXXXXXXooooOOOXooXXXXXXooooOOOOOooOo.....oo++",
"++ooooooXXXXOOOXXXXXoooooooooo...XXooo..XXXXXXXooooooXXXXXXoooooOOOooooooOXX...ooo++",
"++XooOOooooOOOXXXXXXXooOooooX...XX  oooX.....XXXXXXooX.XXooooXXOOooooooooOXX..oooo++",
"++XXXOOOOOOOOXXXXXXXXXOOOoo....XX    ooo......XXXXXXXoXXooXXOOOOooooOOooOXXX.ooooo++",
"++XXXXOOOOOOooooXXXXXOOOOoX...XX     OooX..XXXXXX.XoooooXXXXOOOOoooOOooOOXXX.ooooo++",
"++......OOOoooooooXXOOOoXX.....o    OOooXX.......oooooXXXXOOOOooooOOOoOOXXXXooooo.++",
"++........XXoooXXX..O.XXXX.....o   OOooXXX.....oooooXXXXXOOOOooooOOOoOOOXXXXoooo..++",
"++........XXoooXXX.....   XXX...ooOoooXXXX..XXXXXXXXXX..XOOoooooOOOOOOOXXXXoooo...++",
"++....XX..XXXXXXX....  X   XXX..oooo..XXXX..XX.........XXXooooOOOOOOOOXXXXXoooo.. ++",
"++ ....XXXXXXXXXX..    X   XXX...XX....XXXX.............oooooOOOOOOOXXXXXXXXXX    ++",
"++   .....XXXXXX       oX  XXX...X......XXX............oooooOOOO......XXXX.XXX..  ++",
"++    .......XXX....   XooooX..  X......XXX  ..........ooooOO............  XX ..  ++",
"++          ...........  .XX..    ......XXX      ......oooO...XX....       X...   ++",
"++      ...... ...XX.   ...XX. ........XX        XXXX..ooO...XXX            ..    ++",
"++    ........ ..XXX   XXX..X........XX.      XXX...XXXXX   XXX.            ..    ++",
"++      ..... .XX      XXX..  ...  .....     XX.......XXX    ..                   ++",
"++      ...   XXX      XXXX.  ..    ....    XX....    ..XXX  ..  ..........       ++",
"++       ..  .XXX      XXXX   .X    ....    XX...     ..XXXX  .  .XXXX ......     ++",
"++        .   XXXX    XXXX.   .X    XX..    XX        XXXXXX    .XXX   ......     ++",
"++             XXXXXXXXXX..    XoooooX..    ooX       XXXXXX  .X.XX    X.....     ++",
"++      ......   XXXXXXX...     XXXXX...    XooXX    XXXXXXX  XX.XX    X......    ++",
"++     .     ..   ........       .....      XooooXXXXXXXXXXX XX...XXXooX.  ....   ++",
"++    .      X.   ..XX.....       ....      .oooooooooXXXX.. XX..  .XXX.    ...   ++",
"++    .      XX.   XXXXX...                 ..ooooooXXXXXX.. ..... ....X    ...   ++",
"++    .    XXXX...    ...      .........     ..oXXXXXXXXX... ....   ....X  XX..   ++",
"++    .XXXXXXX.....     ..   ............    ..............  ..      ....XXX...   ++",
"++    ...XXX........         ....  .......    .XXX.........  .        .........   ++",
"++     .XX...........       .XX        ...     XXXXXX......  .          ......    ++",
"++     .......    ...      .XX         ...      XXXXX......      ..  ..  ....     ++",
"++      .........   .     .XX         .X.        XX.......     XX.  ..            ++",
"++              .         .XX         XX.  ...    ........    XX... ..            ++",
"++         XXX           ..XX       XXX.  X....   .......    XX.......            ++",
"++          XXXXXXX      ..XXXoooooXXX.  XXX.      ...       X......              ++",
"++         .....XXXXX    ..XXXXoooooXX  XXXX..              ....                  ++",
"++         .......XXXX   ...XXXXXXXXX.  .XXX      . ...     ..                    ++",
"++           ...   XXXX  .....XXXXXX.. ...XX..   ..   .     ..                    ++",
"++                ....XX .........   ..........  .    .     .                     ++",
"++                ......  .......  ............  .   ..     .                     ++",
"++               .... ...         .   .... ....  .....                            ++",
"++               ...   ...       .    ...  ....   ....                            ++",
"++               ..               X  XX.. .....     ..                            ++",
"++                                 XXX... ......                                  ++",
"++                                  .....  .....                                  ++",
"++                                   ..     ....                                  ++",
"++                                           ..                                   ++",
"++                                                                                ++",
"++                                                                                ++",
"++                                                                                ++",
"++++++++++++++++++++++++++++++++++++++++++++++++++++++++++++++++++++++++++++++++++++",
"++++++++++++++++++++++++++++++++++++++++++++++++++++++++++++++++++++++++++++++++++++"
};
