/* XPM */
static char *result[] = {
/* columns rows colors chars-per-pixel */
"49 82 6 1 ",
"  c #0D1A20",
". c #152627",
"X c #12372D",
"o c #265D33",
"O c #558C36",
"+ c None",
/* pixels */
"+++++++++++++++++++++++++++++++++++++++++++++++++",
"++++++++++++++++++++                            +",
"+++++++++++++.........X                         +",
"++++++++++++...   .....       XX   ..           +",
"++++++++++++.     ....XXXX   XX..    .          +",
"++++++++++...X   XX..XXXXX  XXX..  ..           +",
"++++++++++....XooX..XooXXX XXXX.  ..            +",
"++++++++...    .....oooXX XXXXo. ..             +",
"+++++++X.      .oX.XooX.. XXoo.. ..             +",
"+++++++X      OOooXXoo...oXXo..  ..             +",
"++++++Xo    OOOoooX......ooo..   .              +",
"++++++XXooOOOoooo.X.....ooo...   .   ..         +",
"++++++XXXooooooo....... ooo....  .  ...         +",
"++++++XXXXooooo.....XX oooX....... ... ...      +",
"+++++++.XXXXXo......XX oXXXXX......... ..       +",
"++++++++...XXX...XXXX.. XXXXX.......X  ..       +",
"+++++++++......XXXXX....XXooXX....XXX...        +",
"++++++++XX..XXXOOOoX....oooXXX...XXX....        +",
"+++++++XXXXXOOOOOoo.oooooooXXX..XXX....         +",
"+++++++XooOOOOOOoo.oooooooXXXX..XX....          +",
"+++++++XoOOOOoooo.OoOOooXXXX..    ...           +",
"+++++++XXoOOoooooOOoooXXoXXX.     ...           +",
"++++++++XXoooXXooOooooXooXXX     ....           +",
"+++++++++XXX...XoooooOooo.     XX....           +",
"+++++++++++XX..XXXooOooo     XXX.....   .       +",
"+++++++++++XX...XXXOOoo     XX......   ..       +",
"+++++++++++XXX...XOOOoo   XXX...  ..  ..        +",
"++++++++++++XX....OOOo   XXX...     XX.  ..     +",
"++++++++++........OOoo.XXXX...     XX. ...      +",
"++++++++.........oOoooXX.......   .X.. .. .     +",
"++++++.....XX...ooOoooXX.......  XXX.... ..     +",
"+++++...    XXo.oooooXXX.... .. XXX....X...     +",
"+++XX.      Xoo..XXooXX....  ..XXXX..XX...      +",
"++XXo       Xoo..XXXXXX...   ..XX....XX.. .     +",
"++Xoo      XooX..XXXXX...    ..X....XX.         +",
"+XXoo     Oooo...XXXXX..     .X....XXX.         +",
"+XXoo   OOOOo.   .XXX...     .....XX            +",
"+XXooOOOOOOo.    ..XX...   .......X             +",
"+XXoooooOXX.    XX..XX     .    ...             +",
"+XXXoooXXX..   oXX...X           ... ..         +",
"+XXXXooXXX.o   oXX...  ..   ...  ... .          +",
"+...XooXX..XooooXX... ..    ....  ....          +",
"+...XXXXX..XooooX.... .     ....  ....          +",
"++..XXXXX...XXoXX......     X...                +",
"++...........XXXX... .XX   XX...                +",
"+++......XXXXXXXX... .XXXXXX.. XX.              +",
"+++.....XXXXXXX..... ..XXXX.   XX..             +",
"++++.....XXXXXXXX... ......    X...             +",
"+++++...............   ...   XX....  ..         +",
"++++++....XXXXXX...      XXXX.....  ...         +",
"+++++++..XXXXXX....   .   ........ ...          +",
"+++++++......XX....   .    ......  ...          +",
"++++++++......XXX..   ....  ....   ..           +",
"+++++++++    ..XX...   .... ....  ..            +",
"++++++++++     .......    ... .. ...            +",
"+++++++++++     .......          ..             +",
"++++++++++++ .. ... .....    ..   .             +",
"++++++++++.   .... ....       .                 +",
"+++++++++.    ...  ..XX       ...               +",
"++++++++XO    X..  .XX        ...               +",
"++++++++XO    X.. ..XX        ....              +",
"+++++++XXoOOOOXX. .XXX        .....             +",
"+++++++XXoOOOoXXX ..XXoooooXXX.....             +",
"+++++++XXooooooXX ...XXXooooXX...               +",
"+++++++XXoooooXX.  ....XXXXX....                +",
"+++++++.XXXooXX..  .......X.....                +",
"+++++++.....X....    ....XX.....                +",
"+++++++..XXXXX...     ..XXX.....                +",
"+++++++..XXXXX....    .XXXX.....                +",
"+++++++..XXXX.....     XXX.....                 +",
"+++++++..XXX........   XX......                 +",
"++++++++.XXX........   X.....                   +",
"++++++++..X.........     ....                   +",
"+++++++++..... ....                             +",
"+++++++++.....   ..                             +",
"+++++++++......                                 +",
"++++++++++.......                               +",
"++++++++++........                              +",
"+++++++++++.......                              +",
"++++++++++++......                              +",
"++++++++++++++....                              +",
"+++++++++++++++++++++++++++++++++++++++++++++++++"
};
