/* XPM */
static char *result[] = {
/* columns rows colors chars-per-pixel */
"82 66 5 1 ",
"  c #0D1A20",
". c #152627",
"X c #12372D",
"o c #265D33",
"O c None",
/* pixels */
"OOOOOOOOOOOOOOOOOOOOOOOOOOOOOOOOOOOOOOOOOOOOOOOOOOOOOOOOOOOOOOOOOOOOOOOOOOOOOOOOOO",
"O                                                                                O",
"O                                                                                O",
"O                                                                                O",
"O                                                                                O",
"O                       .                ..                                      O",
"O                      ..              ....                            ..        O",
"O                     ...              ...                            ...        O",
"O                    ...              ...                .            ...        O",
"O                  ....              ....                .       ...       .     O",
"O                  ..               ....                        ....      ..     O",
"O                 ..              ......                        ...       ..     O",
"O                 ..    ...      ......                         ..        ..     O",
"O.                ..    ...     ...... .                             ..  ..  .   O",
"O..               ..   ....    XX..... .                              .....  .   O",
"O...                   ...    .XX....   .                       .      .......   O",
"O...       .                  XXX.....  ...                   ....      ...      O",
"O...       .                XXXXX.....  ....             .   ..XX.      ...      O",
"O ..                ..      XXXXX......  .....    ..     .   ..X..      ..       O",
"O ..               ...     oXXXXXX......   .......      .    ..     ......       O",
"O ..               ..      ooXXXXXX.......   ....      ..          .......   .   O",
"O  ..  ..      .   ..      oooXXXXX.......             .           ..XXX.    .   O",
"O  ........   ..            XooXXXXX......            ..       ..  .XXXX..   .   O",
"O    ......  X..    .        .XoooXXXX....           ..        .....XXXX..  ..   O",
"O     .....  XXX    .   XXX   ...ooooXXX..           ..         .....XX..  .X.   O",
"O     ....    XX   ..         ........XX..X         ..             ...... ..X    O",
"O     ...      XX...    XX     .........XXXXX      ..                            O",
"O  ..           XX    .XXX.     ..........XXXXX   ...                   .        O",
"O....     ......   XX..XXX.     .............XXXXX...                  ..        O",
"O.... ....XX......XXX......     ................XX..                   .         O",
"O.... .....XX.....XXXXX....      ....  ...  ....XX..     ..           ..         O",
"O... .......XX....XXXX.....      ...   ...  .....X..      ...         .          O",
"OX.. ...X...XXX...XXX...XXX        .   ...  .....XX.       ....       .          O",
"OXXXX...X.....XXXXXX...XXXX        .   ...........X.        XX...... X.          O",
"OXX  ..XX..............XXX          ..............X.         XXX..XXXX           O",
"O    ..XXX......XXXX...             ............ .             XXXXXXX           O",
"O      XoXXXXXX.XXXXXX.     .  ...   ....   ...  ..              XXXXX           O",
"O    ...ooXXXXX.XXXXXX       .....   ....  . .    .              XX.XX           O",
"O   .....oooXX.XXXoooX     ........  ...  ...     .                              O",
"O   ..X...ooX.XXooooX.    ...        ...    .     .                              O",
"O   .XX.......XXoooo.........         ...         .            .                 O",
"O   .XX...................             ...     .              ..                 O",
"O   .XXXXX.....X.......                ...    ..              .   .....          O",
"O   oXXXXX....XX.   ..   ..            ...   ..    ...      ...   .....          O",
"O   ooXX.....XX..      ...         ..   ..   .    .....     ..   ......          O",
"O   ooXXXXXXXXX.      ...   .....  ..   ..  ...   ....     ...   ....X.          O",
"O    ooooXXXXX.     ....   .........       .. .  .....    ...    ...XX.          O",
"O    ooooooooX     .....  ...... ... ..    ..   .....    ....    ...XX           O",
"O   ..  ooooX     ....   ..............    ..   .....   ....  .. ..XX.           O",
"O   ..          ......................     .   ...  .......   ....XX. ..         O",
"O   ....       .......................         ..   .......   ....X. ...         O",
"O  ......     ......................X   .     ...   ......X  ....XX.....         O",
"O  ......    ....XX.X..............XX   .    XX..........X   ..XXX........    .. O",
"O  .....    .XXXXX................XX   ..   XX..........XX   ..XX.. X....... ...OO",
"O  .XX..    .XXXXX...........XX...XX   ..  XXXX.........X    .XXX. XXX...XX.....OO",
"OOO.XXX.    ...XXXXXX.......XXXXXXXX  ..    XXXXX......XX    .XX.   XXX.XXXX....OO",
"OOOOXXXX.       oXXXXX.....XX...XXXX  .   OOXXXXXX....XX     ...   O..XXXXX.X..OOO",
"OOOOooXXX..      ooXXXXXX..X....XXX      OOOOOXXXXXX..XX         OOOO..XXXXXX.OOOO",
"OOOOOoooXX..    ..XooXXXXXXX...XXXX    OOOOOOOOOXXXXXXXXX       OOOOOOOXXXXXXOOOOO",
"OOOOOOXooXX......XXOoooXXXXXX.XXXXX   OOOOOOOOOOOXXXXXXX     OOOOOOOOOOOOOOOOOOOOO",
"OOOOOOOoooXXXXXXXXXOOXoooXXXXXXXXX .OOOOOOOOOOOOOO.XXXXX    OOOOOOOOOOOOOOOOOOOOOO",
"OOOOOOOOOoooooooooOOOOOooooXXXXXXX OOOOOOOOOOOOOOOOXXXXOOOOOOOOOOOOOOOOOOOOOOOOOOO",
"OOOOOOOOOOOOOOOOOOOOOOOOOoooooooX OOOOOOOOOOOOOOOOOOOXOOOOOOOOOOOOOOOOOOOOOOOOOOOO",
"OOOOOOOOOOOOOOOOOOOOOOOOOOOoooooXOOOOOOOOOOOOOOOOOOOOOOOOOOOOOOOOOOOOOOOOOOOOOOOOO",
"OOOOOOOOOOOOOOOOOOOOOOOOOOOOoooOOOOOOOOOOOOOOOOOOOOOOOOOOOOOOOOOOOOOOOOOOOOOOOOOOO",
"OOOOOOOOOOOOOOOOOOOOOOOOOOOOOOOOOOOOOOOOOOOOOOOOOOOOOOOOOOOOOOOOOOOOOOOOOOOOOOOOOO"
};
