/* XPM */
static char *_79f8e984d81469cec8567fb057c10fb5704swL70Aw3qwIP[] = {
/* columns rows colors chars-per-pixel */
"64 64 147 2 ",
"   c #453434",
".  c #483737",
"X  c #493837",
"o  c #493738",
"O  c #4C3B3A",
"+  c #513E3E",
"@  c #52403F",
"#  c #533F40",
"$  c #554342",
"%  c #594645",
"&  c #5B4847",
"*  c #5D4B49",
"=  c #614E4C",
"-  c #63504E",
";  c #63514E",
":  c #63504F",
">  c #63514F",
",  c #62504E",
"<  c #62504D",
"1  c #64504E",
"2  c #65504E",
"3  c #64514E",
"4  c #64504F",
"5  c #64514F",
"6  c #65514F",
"7  c #64504F",
"8  c #645150",
"9  c #655150",
"0  c #645250",
"q  c #655250",
"w  c #655350",
"e  c #655251",
"r  c #655351",
"t  c #665250",
"y  c #665350",
"u  c #675350",
"i  c #665251",
"p  c #675251",
"a  c #665351",
"s  c #675351",
"d  c #675352",
"f  c #675451",
"g  c #675452",
"h  c #675553",
"j  c #665351",
"k  c #685352",
"l  c #685451",
"z  c #685452",
"x  c #695452",
"c  c #685552",
"v  c #685553",
"b  c #695553",
"n  c #6A5553",
"m  c #685653",
"M  c #695653",
"N  c #6A5653",
"B  c #6A5753",
"V  c #6A5554",
"C  c #695654",
"Z  c #6A5654",
"A  c #6B5654",
"S  c #6A5754",
"D  c #6B5754",
"F  c #6A5755",
"G  c #6B5755",
"H  c #6C5654",
"J  c #6C5655",
"K  c #695553",
"L  c #6A5855",
"P  c #6B5855",
"I  c #6B5956",
"U  c #6C5855",
"Y  c #6C5955",
"T  c #6C5856",
"R  c #6C5956",
"E  c #6D5956",
"W  c #6D5857",
"Q  c #6C5957",
"!  c #6D5957",
"~  c #6E5957",
"^  c #6C5A56",
"/  c #6C5A57",
"(  c #6D5A57",
")  c #6E5A57",
"_  c #6F5A57",
"`  c #6E5B57",
"'  c #6C5956",
"]  c #6D5B58",
"[  c #6E5A58",
"{  c #6F5A58",
"}  c #6E5B58",
"|  c #6F5B58",
" . c #6E5B59",
".. c #6E5C58",
"X. c #6E5C59",
"o. c #6F5C59",
"O. c #6F5D59",
"+. c #6E5B59",
"@. c #705B59",
"#. c #705C59",
"$. c #715C59",
"%. c #715C5A",
"&. c #715D5A",
"*. c #735C5B",
"=. c #705E5A",
"-. c #705E5B",
";. c #715E5B",
":. c #705F5B",
">. c #715F5B",
",. c #725E5B",
"<. c #725F5B",
"1. c #715F5C",
"2. c #725F5C",
"3. c #725F5D",
"4. c #725D5B",
"5. c #73605C",
"6. c #72605D",
"7. c #73605D",
"8. c #73615D",
"9. c #74615D",
"0. c #75605E",
"q. c #76615E",
"w. c #76615F",
"e. c #74625E",
"r. c #75625E",
"t. c #75635F",
"y. c #76635F",
"u. c #75615E",
"i. c #776361",
"p. c #776460",
"a. c #766561",
"s. c #776561",
"d. c #776360",
"f. c #786560",
"g. c #786461",
"h. c #796562",
"j. c #7B6563",
"k. c #786662",
"l. c #7C6663",
"z. c #7C6763",
"x. c #7A6462",
"c. c #7A6965",
"v. c #7C6865",
"b. c #7D6865",
"n. c #7C6A66",
"m. c #816C69",
"M. c #84706C",
/* pixels */
"o o . . . o o X o o o o o . o . . . . . . .         . .           . . o . . o o o O o o o . . o o o O o . o o o o . . . . . . o ",
"& % $ $ % % % & & = - * % & $ o + + O + $ + o o O O O + + O o O o O O + o O $ $ $ % % % $ $ $ $ % * * $ + $ $ $ $ + O $ * * * & ",
"g = & * 2 2 2 = Z H U v = = @ o + + $ $ % $ @ % $ $ % % $ $ $ $ $ @ $ + O $ * * * * * 2 = * $ & - Z H d 2 * & % * $ $ * = d v d ",
"d g Z v d v v *  .v v d d * $ O % * % $ $ $ % & % * * * % % % % $ $ $ % O % * * * * & * = = * * v l 2 l d = - = = % $ * d g P U ",
" . .o.P Z d v * v Z d v 2 = $ + $ # @ $ $ * * * $ = = * & * % & * & % % O % % & & $ % % % % v d Z l 2 d d = - = = $ $ = Z Z g U ",
"Z Z U U Z Z v d d d d * = - % @ $ $ % - 2 v d d * = 2 - - * * & = % % * O $ * * * $ $ * & = v U U U Z v d = 2 2 = % $ * * = v v ",
"Z ;.;.Z Z Z Z U Z Z = = = = * $ = = = d Z = d g U U v P Z Z g * & & * * O O * * & $ $ % * v P o.;.%.;.;.U d d d d % $ * = = d d ",
" . .d v  .7.1.o.v d - = - = $ + ;.H 0.i.7.1.;.;.7.n.c.a.o.d g Z * - * & o O % % & $ * = d 1.0.;.7.;.;. .;.v * d l $ $ * = 2 v U ",
"v Z v d  .o.Z v = * * = * = $ $ 0. .n.M.0.0.0.a.a.a.g.n.o.d = d * * * % O $ $ + + & * - ;.m.7.;.0.g.g.;.g d d = d $ $ * = = v U ",
"d d v v Z U 2 - * = = d = = % $ l.;.0.g.1.0.0.7.;.U ;.U U - = - * * * $ + % % $ % * = d g.l. .v U ;.0.o.Z d 2 = * $ $ = - 2 v v ",
"= = = d P Z = d 2 d - - = = & $ 1.= 2 ;.o.U U U v U o.v v 2 * = = = = % O $ % % = = d 7.;.;.d 2 v P U v d d 2 - * + $ * d d = * ",
"- 2 d v d P = Z - - = = = = $ + 3._ = 2 U v v d U U o.v v g * = - * - % o $ % % = 2 g i.;.d 2 - 2 d g g d = d 2 & O % v v d 2 d ",
"g g d d 2 U - 2 = * * = = * $ O H 0.l l H 3.l = Z U U U l = = * * * * $ O % * d U 2 = ;.v v d = = = - - 2 d - v = $ = U  .Z - d ",
"U Z d 2 - = * = = & & * & % $ O U 3.3.= = 2 2 = d Z d = = = = & * * % @ O = v  .;.= * 2 = = = * * * = = = 2 g d = + * U U v d Z ",
"= = = * % $ $ % + + $ $ $ + O o = % = & + % $ @ $ $ % % @ + $ $ @ O O + o = d = * d d d & % % + + % @ @ + + % & % O @ = = * = * ",
". o O O . . . . . . . . . . . . O o . . X o . . . . . . . . . . . O O O . o O O O O o o o o . . . . . . . . . . . o O O O O o . ",
"O O O O O O O O O O O O O o O O o X . o o . . . . . . . X o o o o O O O O O o X . o . . . o o o o o o O O O O O O O O O O + + O ",
"= = * & & % % & % & & % % $ $ % $ $ @ + O O O O O + O O + + @ $ $ $ % $ $ % % % % $ O @ $ $ $ $ % $ * d d 2 = * * - * * = - = * ",
"Z U Z * - = - * = = - = & % * = = = * * + o $ @ $ @ $ $ + $ % % & & * = * = * - 8 & o $ % % * * * * - d d = d g d g v v U  .Z l ",
"U U Z * d - d - - = d d d - = * = * = * + O $ @ $ @ + + $ $ % % * = d = d 2 d - = % O % % & = * % % * & * & 2 2 Z P P Z  .U v Z ",
"Z d v - = 2 d d - l = 2 d - * = = = * * $ + $ $ $ % $ + $ = = * P P d d - = - 2 * * O $ * * = & % * & % % $ * * d ;.o.o. .v v  .",
" .d d 8 - = d v 2 2 2 = d d - = = - = & $ @ % % % & % % * d U Z U Z - - d v d - * & O $ = = * % & & & % & = = = 2 Z U o. . .d v ",
"g v = d d Z d v Z v v d = 2 - = * 2 = * % + * % % % $ $ $ = 7.1.U P Z g g v v d 2 % o O % * * * & % % % * - = = 2 2 v U o.U d d ",
"g - = d v v g d d d v d 2 = - - d = * * & O & * % * % % d P P U ;.;.%.%.v d v d = & O O % * * * * * * * * * * * = 2 v o.U g Z v ",
"v v d d g v P Z - * = 2 d = = = d d = * O o % = * * d g H  .U d & H H H Z v = = = = O + % % & * * & * = * * * = = 2 v Z g = = 2 ",
"d v v d d d d d g Z d d 2 2 2 v = - * = @ o $ % = d ;.3.1.v = v = $ = l H d = = = * O + % & * * & * * = * * = = = 2 v v Z 2 = 2 ",
"- d 2 d d 2 - d v P Z Z g d 2 2 d = = d O o + * = d ;.l.g.U U U ~ & & & l H = = d * O O $ % & * * % & & * * % % % * = = 2 2 = = ",
"* 2 v v 2 d d d v Z v v v v v 2 = d - = $ O % = d H g.;.g.l.g.%.l % = = = H = = l = o + $ % % % $ $ $ + % * * * * = = = = * = = ",
"& * - * * = 2 g g d 2 v v P P 2 H d v d % O % 2 H H ;.%.;.0.H l & = = = = v = 2 = % o o $ % $ + O + + $ $ % * * * * = = = = = = ",
"- * * * * * * = = = = = = = 2 l v v 2 = O O = = % = t v = = $ = % = = = * v * * * $ O O $ $ @ $ + + + O + $ % & $ = = = * 2 2 - ",
"$ $ % $ $ + O % % % $ $ $ % $ + $ % % % O o * $ + $ $ $ $ + O $ $ $ $ + + % + + $ $ O + @ O + + + O O O O O $ $ @ @ $ % % $ @ % ",
". . . . . . . . . . . .         . . . o o . . . . . . . X . . o O o o O o . . . . . O O O O O O O O o o o . . . .       . .     ",
"O O O O O o O O o . . o X o o O O O O O O + + O . O o o o O O O O O O O O O o O O O O + O O O O O + + O O . o o o o o o o o . o ",
"= = = * % $ $ + + O O @ + $ $ $ % = 2 d d = = $ + % % + $ % $ O + + $ $ % % % * % % * & & & % $ $ % % % $ O + + $ $ $ % % $ $ % ",
"v d d - = * % $ $ $ O @ % % % & = l  .U P Z 2 * * = * % % % % O + $ % & * & = - d * 2 Z Z g - % % * = = % O $ $ $ $ % * * = = = ",
"d d g d = & % % $ $ O + % % & % = 2 Z U Z d 2 d - = & % % % & O + % * & & & d = d * 2 P v g - = * % = = % O % $ $ % * = = * = - ",
" .- Z Z v * - - & $ O + % % * % 2 v l U U = * ;.d - * & % % $ O + * & % & & - = d 2 v P P v v d - % & = % O % $ $ % & = = = = Z ",
"d g Z Z v Z H v * $ o @ $ % * & l v H U v = * = = % & & % % % + + & * % & * * * l d Z U d 2 l v - * & % $ O $ % & = = * - g g - ",
"8 Z Z v v g 2 = * $ o $ % & * * = = H v  .l & & = % $ & % % % O O % & & & % & = 2 P Z v d = d 2 d - * * $ @ Z * * * - = - d g d ",
"v 2 2 U Z Z = = * % O + & % * $ & = = = 3.3.l % % & % % % % % O o $ % * & $ * * g v U ;.= = d U = * = * $ + d U - = d d d v v v ",
"= d g d - = * * * $ O + % % & % $ & & d l.;.U * * = * % % % $ O O $ $ % * % & * d 2 v v = = * d d - = * $ O = 2 2 d = d Z Z Z v ",
"g d d d = = = * * & O O % % $ $ $ $ = 0.;.o.Z d % % & & * * % O + % % * = $ $ % 2 * = * = l * & d v d * O @ * d U d d 2 v Z d = ",
"v v d - d = = * * & O @ % $ + $ $ @ g U ;.U U = * % & % % * * O $ % * % $ $ $ % 2 = * * * & = = d = = = O @ Z d 2 2 2 = * * = = ",
"d 2 g g g d = * * % O $ % $ $ % $ & v ;.0.v d = = & = = % $ * O O % * $ + $ & % v = 2 * * = * = = 2 * * + @ U Z Z d 2 = = * = - ",
"v v d d 2 d - * * & O + % & & * = * ;.0.0.0.v 2 = * * d % O O O o & * $ % & = % l 2 = = = * & % = d d = @ +  . .P v = = * = * g ",
"v v d d = = & % % % o @ & & * = v * ;.U P d * * * * * = $ + $ O O % $ + % & $ % 2 * $ % % $ $ % = 2 v 2 O O v d = 2 * * * * = g ",
"* & % % $ $ + $ $ + o O O + @ % = - = = % $ $ $ + $ + O + + $ o O + O O O O + . + $ + O . o O O $ & & & + . & % $ $ $ & * % * * ",
". . o o o o o o O O o . . . . o o . . X . .   . .   . . o o o o o o o . .   . .                   . . . . . . . . . . X . X . o ",
"O O $ $ @ $ O O O O O + O O O O o o o o . . . X X o o O O O O O O O O O O . o O o o o o X o o o o o O O O o o o O O O O + @ + O ",
"& * - = * & % & & % $ % * % % % $ $ $ % $ O + O O + $ $ $ + + @ @ @ + + @ + + + + + O + + $ + $ $ @ $ $ $ % @ @ $ $ % & * = * * ",
"d d v v = - - d = * % = v - = - = * = - O O $ % $ % % $ $ $ % % % % % % $ @ $ $ $ $ O $ & % % % % % & & * % & * * & * d d Z Z d ",
"= = d P d v v d v Z = * 2 2 d d l d v = + + % % & $ $ $ & = = * = & % & % $ $ % $ & O + % % % % % % % % + % * = - = - g g d d * ",
"d d d d d d v d d = = * = - = = * * d d $ O $ + $ % $ % d d d v d = & * * $ $ $ $ % O + & % % % % + O $ % * d = 2 = = g Z d d - ",
"d d g d Z v d Z v 2 - * % = = * * * d - $ + $ % * * % g  .U U Z H v = = * % % $ % $ O $ $ $ $ % @ + & & * % & 2 v v d d d = d Z ",
"Z g g v U P Z g g 2 = = * + * - * * * * $ $ & * = % = Z P  .o.o.o.d * = * % * * $ $ O $ $ + + O % = = * * * % = d * = d g Z g g ",
"Z Z d Z Z P U d d 2 = * & + $ * = * * & $ $ * * = = U U U ;.7.g.;.- * = & * = * * $ O $ $ $ $ + & - d % % % * % & % d P v Z Z Z ",
"Z Z - d U v v v - = * * % $ % $ $ % % % + % U H v ;.g.U U  .o.o.d 2 = * * & = - = % + % % % % $ = * * = * $ & & = d d Z U U v v ",
"Z d - = g U P U Z g - 2 * % % % % $ $ % $ @ ;.;.U g. .U o.v Z P Z 2 = % & * * - = & O * % % % = d = * % % * d d d d Z U Z d Z = ",
"= d v d = 2 B d P v U v d = * = % % * = $ O 2 Z 0.;. .;.P v P P v d * & * & = = = * O * - - = - - v & * = = v Z v v Z d v d = 2 ",
"v d U v = & & * * & 2 U  .H * * = v d 2 + + 2  .o. .U Z d o.;.U P Z Z = * = - = * & O 2 Z U d 2 v v U 1.0.v Z d 2 = d v U U 2 d ",
"v v U v = * % % % % * 2 d v ;.2 U U d 2 @ $ = v g d v v U U o.P P Z ;.U v = - 2 * $ O - ;.1.U 0.;. .d U 7.2 v = * = v U  .1.U v ",
"2 = 2 = * % % $ % $ * = = = H U = = d = O $ = * = = 2 2 d v d 2 2 2 d v 2 2 = = * + O H 3.g.;.Z 2 2 = * = % = % $ & = d v v v d ",
"@ + @ $ + O O O $ O O $ % % % * & % $ $ o O % $ $ % % $ $ % % $ $ @ $ % & & & $ $ O . = = = * & $ % % $ + + + O O $ $ $ $ @ $ $ ",
"                    . . .                       . .       . .                         . . .   . . .                     . .   . "
};
