/* XPM */
static char *dark_oak_planks_41701551202[] = {
/* columns rows colors chars-per-pixel */
"64 64 30 1 ",
"  c #3B1F1E",
". c #3E211F",
"X c #3D1F20",
"o c #3F2120",
"O c #40221F",
"+ c #442522",
"@ c #482724",
"# c #472825",
"$ c #4C2A25",
"% c #4F2D28",
"& c #522E26",
"* c #522E28",
"= c #563027",
"- c #583227",
"; c #563129",
": c #5C352A",
"> c #5F382D",
", c #60372B",
"< c #643A2C",
"1 c #6A3E2E",
"2 c #653C30",
"3 c #693E31",
"4 c #6D402F",
"5 c #70422F",
"6 c #6E4131",
"7 c #734431",
"8 c #784732",
"9 c #774835",
"0 c #7B4A35",
"q c #7D4C38",
/* pixels */
"@+@@++$@*$+o++X+##+@@@#+ooo@ooOO@@+o++++++@@&&**&**$$$@++oXo@++@",
"$$#$%$$%**%%%%%%$**$%$$$%@%$%%$$*;:;:;:>>>,<>>,>:-*;%%%$%++@%%@$",
"%$***;*%;;:;:;**$$%$*$$$$%$$@%$$$$**,,:,>>>>;>:=$$*;%%$%%$$$%;**",
"::2,>2:**>,2,,;**$%%$$$**:;>;;>>,>,333336323<22>**;;*%$%%::>>>;;",
"*;::<37733382,>,<<2<>22<>>,:><2222389333777773<<:,,:;;*>>2222>;;",
";>>,371<333132>,<:>;::><:::=::<,<31122336862<131222>;;:;:,,,;**;",
">2*;21,<113832,,:;,<<<,<2<11<313<<11133371179787111,:;,,,:,,,2>;",
":*,<3<<<1811132;:,,><2<<3<3339771988811347787888888893973322:***",
"@-<,,,<,,&=-,,,,:--,1111115<455571811<,1,15155878111-&1131,,=$@@",
"<-&&---,<1888311<,&&;,<<1578585,<<<1<:---:<,1,11,-=,:1111,1,*==:",
"-&-11111,,<11<<<11<1555115115111111111,11<<<,---,1011<11111<,::,",
",1,,,,::-==-:,<<<1,<111511,<<1<<<1<1,&&&$&$-:-<11111<,111311::,,",
"1<<,:,,:--&-&----:---:<<<,<,,:<,115111,=&&&$&-&&,111,,111111,,,<",
"<<,,,:--&@@@$$$$:&&&&-&&&&$&:=&$&&,-::&&&-&&&@@&$:,&&&==,,,:==-:",
"81,,1111<:::,<114,,:-,<,&=-:,---&&--::---=:&-<<1-==,,,<1,,1,,,<1",
"51<<75111<,1<<51754-$@O$@@$&---:-<<<,<<=,,:&$@&&&=&,<1111111<101",
"--=&&-,145<<<11:,::<<,:,:===&$O&O$&$&$=&&&&@O@$=,-,,<<<118111,--",
"<<<1,-15585115,,,,--:&$$&&$&-,,<<5454141,1-=&-:<,,-,,<111,,11<11",
"111111585551<<-&&::,:-=&&-:::=$&-::&=:,,::1,==::,<,,:<11<,,<11<<",
"171,,1<1,<,,-=&&:,,,:--=:==,,:-:,<<115551471::&&&OO$--<<-<<11585",
"<1<--&-<<<,1,;-&:,<<1554<::,,,<<<4555555556:,-&-,,,<<111,<<<1111",
"-,-,11118551<<1<<5584,1,,:,<<111,,<41115111:,,11<----&--::,:,,,-",
"<<1,<---<,:-&&&-,4555<::;:-,<4=&&&=-:,--:<-&$$&&&&-,,<<,,---<551",
"&-1<,-,<<<<,-&-;;-,<1,::=&&&=-:,4,:<,<<,<5,,,:::,,,,,--<,<511,,=",
"<<<<<,:,,,1<>>15755<:;=&&&-:<:::=:=,454133<<<,::>;;:::,,<,1<1455",
",,,-;:,:-,<-;;;:::--;,,,::-,1:,,:,:14,,<2;;;;-***:*$&:;:-:::::,:",
"&&--**$*=;::;::;%;;=;;;><<,,<<<<<:=;--<42>*;***;<>:::,>,,::-&%$@",
"**>,>:*;;;:;>::;;**;;;,222<12222<,-;;;-:>>;;;:;;,,::>,<2:-;;;;&&",
"@@$$$**$;;;:;:::;*;;;;2<2<<<>><;:>;*;%;;:*;;*;*:>22:>><2::*$$#+#",
"+@@++#@%$$$$%%**%$$$*::*;%&%%%%$%$$####%@$$$$%$%$*%$$**$$###$+o+",
"%$@@+@%$$#$@$$$$$#$$;*$$%$$$$@$$%####+##@@$@%@@@$$$%@$*%$$@@@#%$",
"o++++++++o+@##oX o. o#++@@@@#$++@+o  oXo+#@#+#  +o.X+++#++#$@##+",
"XXXX+oO$@+@%*@++%$;;=$O$$$$$@$&*$$$$@$$%+@$$$$%*****@@@@+oX+@+++",
";::*::::::$*:****%$**=***=>**;;;>>**%#@+$*:;:,::>;**:::::*%*;::;",
":;::::,:,:;>>$*$$*%*****=,$*&*******@$**$@=:,>:;::*%%$$*%%**;::;",
"2,22,233932<:;:****,,-,332>><2>;>>,<>>:;:,,<:,,,>:;****,:>>>2332",
",,,3331899q3<,::::,,<33993731<2333982:::,,130qqq3311222303q33393",
",:,2<<133833,<-&,:;>-:173<,31<<:<<31,>*;,,111188331111<,<<1<2222",
"133311111qq111<,233,-1111<,<,,,<1,3813>>1180q8813111<11<331<::,3",
"83331118813<,----,2,<1<<113345553118012381111180311111<181<<1113",
"<<111118111,,,-,,><1,<134<,&:,<<,-,<111:==&&1301:,1111,===,,,,,,",
",,,11<,,181<,-=&$$@$&-<<:14<=,<,,--=$=:1111<3111,,1,=-=-:,:::-=:",
",,<1181,,181,,-,,-,,<11845445::,,;;;-,,<:=&-,:-111,1--,,,<1<1,::",
"-;==,,<<188111,,,,<<188185<14:=:;=,--<111<,,<,--,1111,,1<<<<<,:=",
"1<,-<,,,8881<11<<<1<,181584,====-,,;,,<<,,<11<,:,1<1111,,<<<<111",
",---,<11111<,<11,,--,1584,:::==$@@$$@$=$$$&=-=---<1<,,,,,,,:,,,,",
",&=-,1<1111<<1<:,,,,<11554<:::,:=;=:&&=*===::-:-&==-&-,,<<<,,,,,",
"<,-,,<<11<-==,:--&&=-11155,,,:,,---,,,-,-&=---=@$&$$$$$:1<1<111<",
"=--&==-,<<,,,,<,:,14441<444,,45<<::,,4<-:15745441,,,:--&$=-:=&&&",
"111111,,,1,,,,<,4477544,<<,1<5<::,:,<<,-::,,,,,,,,-====--1811111",
"&-,<183<,11<1,,145547571<,<<45:-&:,,,14<,:,,<14:,1,,---:,:,-==-&",
"<<<<18081,--==,<111<1444144555,:,<41<411,,,14574181,,,11<1<<<,-,",
",<,<<1111555<,,-::<<<,<,<::==:4<,41,<1<,:,:,54441818<<18111<<,,,",
"=-,==-<111511,,,<5444774554<:<4455411<,,,,4<:,<581811111111::--=",
"$@@$&-<<,,585111745557775544:&,4454,,,::,,<54:===&&&-1111<&&&&@$",
"$$$$=-<<11111,1167754411<,<,:1-:,,-==:::::=:171:-,--------,<:--O",
"=%$$*,<315145455777711<<<14,<4115574<<,:::,1,<1,,<1<<1131:::-$$$",
"$@@#$::<11<,:::,>>::--=&=====:;;--====::<111,=%;&---;&&:-::$*=,-",
"@%**&**>,,,::::::;;;&*$$@@%$$=&&&&&%*%%$$$&;:::-:::::-:*=&-***$$",
"##$*;><2<:-;->::::::;;**;=%$%&*;-==;;:-;;;;>:>-;;,>>;;**:;-::=*$",
"#$%;*:>>>:*$%;%%****$$%;:%%%%#%%%%%*;;;;%*:2,<;;;;&$$$%$%$***;*%",
"@+++%$%%$$$%$$%$$$$$##@###+++++##$$$###%$$*;;;*&*$$$$$$++o+@@@##",
"##++@$$**$$$$@+#$$$@@%##oooo.oXo+#$$+$%#$$*&$#@$$@$$@#++o+o+#+++",
"XoooX++@+++o+oX  o+++++o  X    .+ooooo+++@@@@@@+++@++++XXX  X XX"
};
