/* XPM */
static char *a72e55d09a9248aabc7f98d021adcae0kULAJNWmbw37pah5[] = {
/* columns rows colors chars-per-pixel */
"64 64 9 1 ",
"  c #57372F",
". c #614136",
"X c #69493C",
"o c #705041",
"O c #755545",
"+ c #7A5A49",
"@ c #80604E",
"# c #876853",
"$ c #886954",
/* pixels */
"X.  O.XoOO#X+o+XXO@#@OXO++. XO. XXoXo@+@@@@++@#@@@X+o..O.O..O.  ",
"X.XXO+@@#+@#@###o++@@O+OoOO#@@+@OoOO++@#@OOO##@o#OOo XXo O  OX. ",
"+XXoX++O####+@@+O++#####O+OOO@@@+OoOOOooo@@#++o X o. o+O.. .+.O.",
"X..XO#+XO###+@+@#@OOO@@#+@@oOooXXX.X.XX++O#@+X ...+  oXoXo  X.X ",
"...X#+oXO+@@@@@@@++@@@@+.+oooOooXoXo@Oo+@@++O. .X.o  X+#.@X+...X",
"Xo@o@...oO@###@OoXXOXoo. ..XX+XOooO+O@#O++@#@+@O@XOoX.X#X+X+O  .",
"oo#OoXOoXXOo.   .....  . ..O.$XoXoo+OoO+@OO++@+@+#+oXX.@@.XXooo#",
"++oOoOOOOXXX.   ..o $    ..$.$..oo.Xo+oOo+O@OO@OoOoXoX.X@.X.X@o@",
"O+#oO+OOooOXX    OX.$   .  $O. ..$XO+@+OO+O++OO++oXXXX.Oo.XX.+o@",
"@@+oOXXoOO+oX .  oX.$  ....$.. ..$.ooO@##oOO+OooOXX..X.OX.oO@#@#",
"++@@@OXXoOoo. .  ...$..   .$ . X o oo+oOO++OOoooOoooOX.o+.++#+#@",
"#@@+OOO.X.Xo. .. ...@X.  X###X.XoOo.ooOOo+@@#@@++oXo.oOX++#.XX@@",
"+@@OooX.  X+ooOXoo@#OO@oX#@@+++###OXXoOOo@@@@##XXX.XXOXXXXo.  oX",
"XoooOo+Xo+@+O@@@#O######@###@@#+++#OoooO+@O#OooOoXXo.O..X..O..Xo",
"OO+OOoX+Oooo@+@+@@oo+@@++###@###@O+@OOOOoo@@XXo.oOXX.oXXOOX#+@@+",
"+O+@#+XOOo++O@@++#@@@@@###@+Oo+++OoOOOo++@##X XoOXXOXXo.O@X+o+OO",
"OO+@@OOo+X+OOo@+++++@@##@#@OOOO+o@O@oXO.+##O.XOXoOO@XXXXo+@+Oooo",
"OXooOoOO+OOo+OO+#@@+++@+@@@@oooO@O++@@@OoOo.XXo.oXo+XXO+.@+XO+++",
"##ooOo+OoX+O@@+@@OOO+@##@@##@Oo+@OOo+OX.@X. .oo X.OXoO+++Ooo@##@",
"+#@+@++#####@@@######@++@@##@#oX+#@+oOOOoX.OXXOXX XXoOO+@@+@@o@#",
"  @+o@##@oOO##X+X@#++@########$+o#@@@@o+OX@##OXooX.oXoOX#+o# ...",
". .+.+.O.    o+@ . @@@#.@@X.@+$O ##+O+ooO+ooOoOoOOoOX.+.X..O Xo ",
"X X @# X..  .   .+ .oo+ #@  ..$X O@++oXXOo++@@+XOOOoXoo o+#.  ..",
"O o  .  .X     .XO o   $ . .. X. ...XoXO+@@@@+++#+XoXO. o$X  . O",
"X #O+@o.+#OO++. XX.O.  $.X.o. $.X...XX#@O+@#+++O+@o+XX  X$.  . o",
"@+++@XOO++###O+X  O+   $.. O. O.X.X...@####@X@+OX.X+XO  .$X  X.O",
"o.++Oo++o@O  ..Oo#Oo   $X@OOo.$.X.XXX o@OooOOOoXo+X+XX. .#.   OO",
"..OXX...oX  . .Xo  oX..O@###+X.        XX.+OOOOoO+ooX XXOoX..X X",
"    XOO .. .     .OOo+@########..X..O@@o+X+Oo+oooOOOO#####+@+X.X",
".OO@@X+++O..O+OO#@+@#######@@@o@@##@ooXXOX.XOoOOooOoOO+#####@O##",
"@OOo@##ooO++@#@+#@@@@##@+OOoOo@@#@@@O+XoXX+O+ooOOoo+OO#@@++@o++O",
"XoOOoX+Oo@OXX+OO+++OOoOO+@@OoO@@@@@O+oO.o@@+OoooOoo+++@@@@@+oXoX",
"OOoOOOXOOX.XOo++++++@@#@@@##OoO@+@@+@+oX#@oXOoXXXooo++@@O@+OO+oO",
"OoXOOoXOo..XXoO++++@+@++######@@##@@@O+#@o++@@oooOO.+@##@@+@++OO",
"o@+++oo@.XoXX.oOO+o@@++@+@#@@@+@++Oo@#OXo+@#+o@OOO@X@#@@#@@@+#+O",
"O@@@++O@.X@ oX.XoOO@++@O@@+######++##@#@#Oo+O+oOOoXXOoO@#+O+OOXo",
"++@oo@#o.X$X$XooOOOXXXoXXo..##@@@+###+X+@o..OX+o+@+o+@+o+O@@Xo@o",
"+@OoXX+.o.$o$OOoO+.O@+OoXXX.o##@#@@oXO.O+X. o o@#@#+O+oXoX++X+@+",
"OOX....X..$.$XoX.oX##@++OooX.X###oO@Oo #+ X.X .oOXoo@.X ..XoX+#@",
"@X...X.oO.@ $o.oo#XoO@O++o+oX..## #+@X X+ . o.XoooXX#.o. XXXoO@@",
"oooX.X.o+.+.+o..X...o++###@#@oX X @#.X    o $X.o OOXo.XXXXoO@+#@",
"Oooo...o+.XXXo.XXX.X@OoO+#@@o++.. o. X .  o.$o oX.OoO..XXXX+#@#@",
"Ooo+ . oo XOXo.X..X+@+o+XOoOX.OO. .X. X.  OO+. .O XOXXooOOoo##@+",
"oOX. ..O+..+o..X+#O@#@#++##XX.ooX .oX o   ..@   O .XOooo+Ooo+@Oo",
"#@# ...o@XX+@oX@@@#@.@@.##oXOXXo$ XO. $   o+.  .@o+..oXXXXO+@##@",
"@#+@...oOXoO##ooo#@  XX XXXo@+XX$ oX  $   o .O#@@##oO@@@@##+Oo@@",
"##X@OXoO@@@o.ooOXo.  oX  .XX.+Xo$.$+o.$o###++oXXOO#@@Oo+#@OoO@##",
"#Oo@OOo.X...o X  ...+o.   XoOo..$.$o.X$.X+ooO+OOOo+oo#@@#Oo+OX+#",
"OX#@OXOXo. XX .  ..#++@ X.@ $ o.$.$ooo+o++XO+OO+XO+###@@OO+O+oXX",
"XX@++XOXO....    .+OXoO.+.X $ O.$X$X..#OOXoooXoX.OX#@#@+O@#+##o.",
"@+@##O@oX...o..  .. ..X..  XX O.$XOX. +..oo.oXoXo.XOX@@@#@++@@#@",
"+#@O+O@Xo.X@+@+OOoX...X X  oo.X.$.oXO+@.X@oXXoooooXo+@@++oo@+@+O",
"oo@oXO+++@+#@#@@+###+OOXO.O@OoXXo ooOoOoo+XoXOo+OOOo++@+O@@OOoOO",
"@O.+O@###+@++####@@@@#@+#+@o.@O+OX+.XX++#@@@.XOo...@o@#@#+X.O.XO",
"XoXOO@o+@##++O+###@#+@+o+oO.X+ooXOO.o..ooXO@++o..XX.XX@+O..X$.Xo",
"Ooo+ooOOo@@+OOooXooO+++XO+oXoOoO+#O.X....X XO.X.X.Xo.XXO...o$XOO",
"OXO+OOo@+oOOOOo++O++@+OOOoooo+oOO++.XXXX.X.. .+.o.X$... X..oOoO+",
"+ooOoOo#+@@@ooooOO+@@#@@+O+Oo+O+OO+XXXXXXXX. X+.OXX$X...$.Xo+#@+",
"+oOoo+oX@+++ooOOoO@@#+@##@+OOooOOOoooX.X..o..XX.+X.$X..o$oo.o+Oo",
"ooXo..@#@+O+OOooOO+@#+@O@@O+oOooOoXXXoXX..OoXX..oXX$X.oO$+Oo+oOX",
"XX.Xo+oo+.oX++oOXo@Oo.#XO@O+oOoOoooXo#@#O@@@@@O.X.XoXoOO$@@@#@Oo",
"@@O@+++oOO@XOOX###+X  XXoXOO+O.XXoXO+@#@@######@o.oOO@##$@##O++@",
"oo+@@X O@.  o.  . X     XoXoo+OoXooo++oo##+#@+@@+X@#O@+Xo.. . X+",
"O+  .   OO+   X. .Xoo. . . ..X.oooooooO@+##@@@##+OX@o. oXX. o   "
};
