/* XPM */
static char *b433b30dabe84697e0c409733f024912xa1USYFGIjWeKL1s[] = {
/* columns rows colors chars-per-pixel */
"64 64 17 1 ",
"  c #685241",
". c #735D4C",
"X c #7D6655",
"o c #856E5E",
"O c #8C7667",
"+ c #937E70",
"@ c #998679",
"# c #9E8C80",
"$ c #A29085",
"% c #A69489",
"& c #A9978C",
"* c #B3A196",
"= c #AC9B90",
"- c #AF9E93",
"; c #B6A59A",
": c #BAA99E",
"> c #C0AFA4",
/* pixels */
"XOOoXX&**$XX#*&@ .O:oXXXo*;*-=%=OooXX.OO&=OO*$;*=O@&;&#@o-.@:*;X",
"ooooXX o@oooX&+ X  XoOXX%*+$-;:*XX$%&+Oo X.%#O**=+o-;$*.X;+X#>$o",
"oo#oXoX.oXoOo o-:*.OOoXX=;;++;*O.O==%=&&$.X#-X&=-@X@:*Oo.o=-#oXX",
"o=%#X>>;%#XoO%>$+:+oooXXO&:>%o.XX$-=#%=*&.o.&$*-&%XO@.o@#+XXX#=o",
"oX#+o:=:=%oo-=*;%*.##+oOXoX.X.XoX>**==;:$.-*.*;:*&oXXo&&--#.@*;%",
"OoXXo;+$>>Xo%#&*>o.%-*;*&&%oo*@Xo>@#@@&@X.=;+.;;+oooo:*=-;: =--&",
"@oooXO*$+XXoX@-=+X.*>:-#==-@O:@X.@>*=$.o%$.*o..oXXoOX@;=&**.+-=&",
"%oO.+@o.XX#-+XoXoo =-=;-=%%%o+Xo$O.&>+X&%%+ .XOoX@:>*O.+#=O .:;%",
"#Xo:&=>+ @=$%+ooooX+-#=-&=*+oXO>;&+ ..$=-=%OXo#Oo=&*#%%..Xo#OX>&",
"oo>$oO>@ =;-=*@.-&@o*o&==&oXooo=*;;@X+*-=$*$.;;%o=$=*#;..@===O.+",
"O**=@O;Oo:$%$$-X*::X>O#;;oOOO@oX=&>>O@>--*;OO;-=X-%-;>*X+*-==*oX",
"@-&&&+=oO>&=&$=X-;$.:%$++##@@$$+o;>$O+>%$#;.%-*=X**#X .o@;;;-*>o",
"O=$&*;>OX.o$O+**.X.+;:.O#$$#$#$&XXooOo+*#@>.&>;&ooXO#O@oo;O+#::+",
"O&*-;&$.##@.&#=-O.XX&@o%&%&&=*=Xo=&#++OO::&XOO.X@%&=*;$XX&:&%>=X",
"X@$%#o  %&;& *:@.OXX..@-&%$#$&X-;-&&@@OX.ooXOo@@$$=;**%XoX.oX...",
"O...oOX.#%*:; .o-:>:=+.@-=$$& #$@&%%$@.X#Ooo+@#=$=-##-oX+:- .%--",
"#o-::>>o@&=$;X$;=;@;;-&+o*;$.#-%$&=%&OO>;#O+O@&;;$#@@+Oo$*:X>>:>",
"o@$=&&:=.&>@$X;;;@.o;:;&oO#X+;*==%-=@O%@>-O+@O .o$=%;o++@-:.#&@*",
"o&@%&&#*.+>*Xo:-=@OXo*::@OOX.oO$*%;# =%+#>o#$$*:*O +#oOOX.....oo",
"@&#&@-+#= *@.o-$=%&$@+*>ooXO&*@X ooo@*%--@.#=&-==%%. oOoXo#*=OXo",
"@#&&=#O#-  X O&&&%#%=-#XX@.#:>::*%.-%&=$.Xo+#*;;##&;#oOoO=*;&-$X",
"O&=;*O$:=.O:@+-$$#&&:X  &>+O%*+*:>X&&%#.$OoO=;*$$%#-;XOX%:%*=$%+",
"oo@-;*>#..:;@+#&%@#*oO@.$:$ :+oOO&+o%=.:;*+O;&==-&$$:+oX%=&:$$$O",
"OoXo.OX +:*X++@+&@$X+#+O+O>.>++$$%= @X#$&-%o;&$##&$%&%...*%;=-@+",
"OOO#&O @*=-++o$&#%X$$%.:#X# #$%#&$;. +&%#&+Oo=#%#$%$%;XX .;:-&O+",
"O+O->> ==--=$.@-$O&*=#+--#oX+$+$%%=.=&#-$=$@X=+&&-###;$.=#.o+ooO",
"oOo*;$ &$$%=*o+$+O-*;X=$$***.==##=X+*$$==%@@O&#$$X@*-*:.:&..XOXO",
"oXo.  .$*-&==%.XX>O@:.%&%%%:O#&$%&X@=$$*=*O@X$$#%&+.-=%XOX@&-#%X",
"X$;>=-+.o&;*;&X.$>$+.@%%%%*%@X@-=&Xo;%&=%%#oX@%$&;%&XOOo@o##@#$O",
"X>#X$:*=@.+$&X..X$* $=##&=#+XooX#%X+=**&%-%#o$$#$%#-@oOOOX#=&-&$",
".$+@;*$==OXX.+->@.  +@%%-+oXXooXXXO+&*;;-%#$o+%#$$%@OOOO@+.=@#=-",
"$ +%=&==%XOXo-;*-=>*X.OOoO##@O$%#@+o#==*$%#OOOO+@#oXOoX@%$@X;;%&",
":.X..o.. O#o+&*;%#$#;==X+&;;-***-=:#Xoo +++=$@%@OOo@@..=*&-.:Oo@",
"* X.#;;-;%*++-:%#%$$&=:+o&-&%*;****:;XO=>*;::&#%+X;>:#O:;=; %++$",
"X O %;$=&-;X+**%$&=##$*=X*;%@@$###&:%o::$&=**>*$oX:-#:.*%=:o#>::",
".;>=.:-=&=-X.%*-==&%#&-Oo&;$++&$#$%;O.>&$&&$oo+$oX:::> ;$O*@X+$+",
"@$:%..#$&=$.OX.#$##%$*=X+$;%%&%%$&*O.=@=;-=O*&%&O.*&%-X#>%#.. .X",
"X&*#.oo@@oX+*;&X+&%%-%+o%*;$&$%%&@O.%&*X:@X;&-==:O@=%&+oX.O=%-OX",
"oX.XoooXXo#;%-==+o%#$@..&-==-%%$$#+O$==@X.-$$$-*=&X&-+ooX====%=O",
"ooOooooXX&;=%%&&&@o+@XXoO--=#$#%$%@O$&==@+=@#%$$$+XXXXooX:##*%;X",
"Xoo++Oooo&>=%&%=-=$+X@O. @=&=###@#o$%$##%%%@#@#@ooo+%%X..X&>>;OX",
"%XXOOOoO+ O+@*;=-=-%o;:>$XO=$##$#%o-%+@#@@@@++++ooX#:;$%$O..X.o&",
"$*.XXXo:;OXOoo$-%*=X#:&-:*oX@@@#%@XO#$##+oooX..X.Oo+;%&*&&&@#X*:",
"*+OO::>::*XXOOoXoOoO:;-=&*&oX+##@XO+oX XO:>;*-X.=>%.*-$#**%$$X$-",
"-*oO=-oO#:.o$@OoOXo;:==$&@%$OXXoo#&;;:-oo*$;&$X=@==o#*@@-;*;-X$*",
"=& O-;+O+@%X=&$XXXX:*&*&#@$$XO--o::-=&$:O@+*=X$X@;-%..Xo...oXXo-",
"X o %-%%&%*.@&->%oo:&$:#$@$+O==-+#=$#&-=&o+;& $@#$=-o.$=>-+oXooo",
"X;=& +%$$##&.&%;@-X:=@*=$$$XX=$#$o:%*-&&=$.  -=&*===OXX@>-...ooo",
"+>-#* =#$##=O@:+#:.--;=-&o.XX*##$X:;=-%#+$@oX::--&=-.$-OX $>&OOO",
"+:%;> ==-%==++&&-*X=%*;=X-: =$%%#OO:-%=@O@#ooo-;=#%=X>;-+X*:-@oO",
"X#*-&.$@@&=&O.@#@O.o@-;o&#%O;=-&%$.@==-#@#oXXo..O+%@O-;>=X;:;+oX",
"@.X@XX=#@#$-ooOO+@#oXXoX:-$-&@$$$oX.XoOO+@Oo.X+*%. .X#=>O.@=@.@%",
"&$.oo.%$$%@OX%%&&%-&@OX+:-oo*%-;o#$#oo+$OOoOO.#>=&;.oo .XXooo#%%",
"%;&@oX@%$XXoO%$%%-;::OoX&>Oo#%-+@&%&oX$;$.;:&* %-=; #>;@oXXoX@&%",
"&;&:oXX+XX@+@$&&--=;=oOoo*&$#;$X&%=:OOO;@.;=O#OX%*> ;-=-$.--OX*=",
"*-@$*XXXX@$$%&=*=O$*%o#@Oo#:-:X%&%$*OOOoXX+>;::+X%XO%-&&X+@$=O.-",
";%=*&.Xoo+*=&&&&$+$@XXO@OXoo#$X=-=$+O+ooXoX.+#$*oX.@-*$Oo;==*:.&",
"->=+ $*O.o&-*;-$=#  XXXX+Ooo+OO&#++OOoOX.%$O.#*;oOX#;*+X;&-*&:@o",
"+@.X$>::oXO-;*##+.#*>o.#*:oo*>O+OO@OoOOXO*-$.oO@OoooX .@:O.XX:; ",
"oo%**%$#>XX+#XoXX%:;;O.*::OX@@o+Oo@ooOOX@-*-X.Xoooo@#-OX%:;%->+o",
"oO=--=-#>@ooXXooO**%$X.>#=.XXX+oOOOoooo#;&*%X+-=@o@&%::o. .oOX.X",
"oX%$&-=$;-oOoXXXX-&*@..@#XX$&+Xo+++OoO;&*-%oo>*%%+@$-:;#.+@@@$=@",
"ooX&%=*=&=ooo$>$X-&=@ooXXX#%%-%o@OOOo=:*=-@.&;*%&+@=-:$$O:;&&$=#",
"ooXo@=-::%XXO*&; +=-@oooo;:-$%&++OOoX%*=$$%X;;=-*o#&;*+%O#&;=%&+"
};
