/* XPM */
static char *_73d5efd8e1b4c43840c84ae9dba642aXbZcazyzzRNNJelO[] = {
/* columns rows colors chars-per-pixel */
"64 64 18 1 ",
"  c #70563F",
". c #585F67",
"X c #84664C",
"o c #947152",
"O c #A67A56",
"+ c #B1805B",
"@ c #B7855E",
"# c #BB8961",
"$ c #C18B60",
"% c #C09065",
"& c #C69164",
"* c #CD9767",
"= c #C69569",
"- c #CC9A6C",
"; c #D39F6E",
": c #D8A674",
"> c #E0AE7A",
", c #8A9AA2",
/* pixels */
"                                                                ",
"::::::::>>>>>>>>>>>>>>>>::::::::::::>  o ;::::::::::::::::::::::",
"#%&#@O#++%=$#@+@+@@@@$##@+@#@+$@++O&#+  :-O@*%#&@+OOOOOOO@+O+@@#",
"O++@@&@@#@$#+#@@@%##@@%###%@++#+O.,X:> o:O.,&-;%%==&%$@##++@@+@+",
"@#%$%*%$=%;*===;*$$$%&#&%@###&&%O..%*: o:O..@##&###@@@@++@@@@#@@",
"@@#++++++$#&&++O+O++O+O+$%$$$#@@OOO--: o:OO**&%#&$&$##$#@+++++@@",
"+@+@#%###@$#@+@###@#@#+@+O+O+@&%%@;#$: o:%#&$#&@$@$#$#$##++@++++",
"#%##$%$$@$@@&#%=&=%=&%=%;-%=&&&#@@@O@: o:@@@#%==%=*;**;**==#@@@@",
"@@@#$%%=--%*#%&#$@#@$@@#$##@@@@$@=:;:: o:%@##%#%+++++++++++#@+@@",
"++++++++++++$@$#$#$&&%&$@#@%=&##$#+@#: o*#$&$%%&#&%=%*=%#%$#@+@#",
"#@@&&%-;*&%#&##%%#*&$#%#+++++#++@#&&+o oO+OO$@&#$+#$#*%&*&$@++@@",
"$*#@$$&#&&$+++++++++++&$$#%$%%&#$@oO@: o-%@+@%%&$=#$#+++++++++++",
"=%$&#%##@#&$$$#@+@#&+@##@@@#@$%++.,%:: oO$.,o@+$@@@%@&&&=-%%#%&=",
"*=##$+--&$OooO#$@%#==;*&;;*=*$+=-..XO*  %O..+%-;-&==&$===+*&++$%",
"@@o+@%%+@$*;=@o@@+O#&=%#@=%###$#@$+&#  o OO++OooOOoOOOO@+@O+@%%%",
"XX    X X X            X       X                                ",
"XXooXX X X X      XooXXooXXXoXXXooXXoOooooOOOOoXX o  oOOOoooXXXX",
";::::::::>>>>>>>>>>>>>>>>>>>>>>>>>::::::::::::$:+:  >:*>>>>>>>>>",
"::=%%$&#=#O%--#=-%$*@$$&=%&$#%&$$&#&$#$+##--=*%&O:o :*&o+@$==-*:",
"$&#$$&%-=*&+#@#%#%;#*&*%*@$+$@+O++@OOOOOOO@@%O.,::o :O.,o&&&&#%@",
"&*%@@@@##%%#@++++@%%&+&$+@@@$@##%#&$&%#@@+OO+O..*:o :O..$$$#+#&$",
"*#+$#$##$*%@%--**;-%%-=*##$@&$$@O+#@#+++++$@+OO**:o :OO@$@$@&***",
"$=;%%%%%-=;-++++++++++=-%%=%=#@@+#@%$$@+#@@###+O&:o :+$##@$+++==",
"$*#@@@#$*##&*%@$%&&%*;*$$&&#+$#*-;;&#$$@@@#%@OOOX o *;=$##%%$$&+",
"+@@@#++@++$+++#@@##@%@%%%%%%%%@++++@@O+@O++++%%%$:o +@%@#@&&%#%&",
"$*=*&=&&*%-*#$%%&&&$$=*&@$++++@O+##&$$&&=***&*&#+Oo **$*&&+++++#",
"=&#&$$$$@&&$&$@$=#@@$#%@@=-*%&&$$*&$$#@+oooooXOO :o o@+%%##+##%#",
"+@+++++++++++++++#&&&%&=%@+OOO+@++@+#+#&%$%==$oO=Oo O;%&@+@+@$@+",
"++&$%&$$%%$@+OO++@##%====;==-==%@###@@+++++@#o.,%:o OO.,#%%$@++@",
"#+@O+##%&#@$=*%=*#@&&&&%;-##$@$&-;=-==:;%#--;o..++o #O..;*#&*%@+",
"&$#@OoXXO++++$#OoO@#++@@OXXOO@+OOO++$@OoX oXOOO*;o   OO$@+oooO&;",
"                                          X X X X o             ",
"ooooooooOoooOoo   XoXXXXooXXXXooooooooooXX X X X OOXXXXX   XooOo",
"::::::::::;;;::o o&:::::::::::::::::::::::::::::::::::::::::::;:",
"##*&&@@%%*O.,>:o o:o.,%%@+@%%%#%++@++OO@$@#&%&**&%=--=#O@@@$#=&@",
"@&####=-:%O..@:o o:@..@+$$=&#&=;&;%=*-&$%&&@$%&#@@%#++O@++@$$**$",
"&$&--&&@#%OOO*:o o:++#$#@+O@@@+@@+@+@+$#+$@$#&*-==&#$$%&*#$$&*&=",
"@$$$$$%=%-==&=:o o:O@+@##%===--;=;==-*-=@++@@+@OOO+O++O@#@=##&&$",
"$#@#$@$&=%###+:o o:Oo@+++@$$#@@@@@#*+@#$*-*%&***=*=%&&$#%$#+++#&",
"$$$&$$##@*$&@#:o o:#=OoOo+@##@+O@+@+OO++++@$#%@@$@@@@########$$$",
"=-*&*&*&**$#&&;o o&@++*==&%&$%%&*;$&$#$$&#@@+@+@@$@#@$$@$@+@@$%=",
"++$*#&###%++$$$o o:@###$$&$#@$$&&$+#$@@@$&&*=*$&@@#@@#++++$&@@@+",
"=-$&$#$&*&*-%+=o o#%$$@+O+@$$%%@##@$#@$@@$#@+++++++++++++++++$$#",
"%&$*-;%$#=$o*$$o o:+o+#%#+%==+++++++++@@##+#@+O+++$@$$&&$$&&&&&&",
"=#@**&#$&#O.,o@o oOX.,&@#$%*-=*&OOOOOOOOO$=&****-&$&&%&#$#$&&&=$",
"%$@O@;;%**O..&;o o$+..O&@%#++++$+@+++$++*&$==***O+@$*&*&&&**&*##",
"==*$$$@oXOOO%o+   O+OOOXO##X%#@@@@@++OOOOO++ooooo+%+++O++@++@%--",
"                             X X X X X X                        ",
"OOOOoOooOOXXXoOOXoXXXXXoXX    X X X X ooooooooooooooooO+OO@+OoO+",
":::>>>>>>>>>>>>>>::::=:::=o o:::::&::::::::>>>>>>>>>>>>>>>>>>>>>",
"@$$&$#-;%%%=%#%%%=#%@$.,O:o o:&.,@++@+=-&*&&#&*#%=%-%==%%=%%$:$@",
"&#&=-;=*###&&*&$$$##%$..X:o o:@..+&#@$##&+++@$&=*$$&#&%@;&&&$@#$",
"#%##$$#%@$+#+@@#@##++%$O&:o o:#=**#O++$#&$&#$&@#&$%#%****@$$$$@+",
"$#@+$$*$&&+*#*#&$$$%$@$&&:o o:#++O+##=-==%@@%$=;;&$$#@@$######$*",
"@$@@++$@&$$$@$#$#$$&$#&&*:o o:%=%###$@@+$@#$+++@#++++#$%%*$$$$#O",
"++++++++++$@@#&&#&$&=%&&*:o o:+$##$@@$#@$$&-:=--*-&$%*&&&&&$#@@#",
"++@OOOO%##$*&#$###$$$&#+o+o o;&#***=%@#$&%=$$$@+@+++++++OO++O$+O",
"$@++#$&*$$&@&**------%%=;:o o:&==#+##%#%#%&&%&=--**&&%*=*&&$##$$",
"O++#@+O++++++++++++@O++Oooo oOoO++@@$$##$+++++++++++&$$#$$#%$+$O",
"##++@++#%#%#%%&&*==**$@o%+o o-%**+#O++++@$%;-%%%%=%@#@O+OOOO@#@+",
"OO+@##=%---*%&$#&#@@$*.,**o o&*.,X$=@$@@++$$*=%%%&&&#$*-*&&$#@@+",
"@#$$#$*%%+#%&#&&=%-=%*..*Oo oo*..+*O+%+###%%%=#++##@$@OooOO@##@O",
"#+OoOOoo+$$OO+OXXO@++o*o#-   &+*@@Oo++=%##O++@%-=+&&OoOO+#+OO@&%",
"       X                                  X X                   "
};
