/* XPM */
static char *e273421e17a24120fe2689d0033e3f4biPzkGtthsnF6cdFf[] = {
/* columns rows colors chars-per-pixel */
"64 64 10 1 ",
"  c #462B24",
". c #57362C",
"X c #674031",
"o c #754735",
"O c #7E4D39",
"+ c #86533C",
"@ c #935D45",
"# c #BA834D",
"$ c #DC9C75",
"% c #F8BB7E",
/* pixels */
"            ... .......  .... .. .  ........                    ",
"++@++@@@@@@@OOo@@O+OO++O+O+@@++@@o o@@@@@@@@@@@@@@@@@@@++OOXO+++",
"O+OOOOoooooO++Ooo+++++++++OOO$%oX  O+$%@+oO++OOOOoXXXXXoOOoOooOO",
"oooOO+O+++++++OOooooooOooooXX#$Xo. o+#$@@@@@@@@++O@++O++OOOOOOoo",
"oOOoO++OOO+O+o+++++++OOO++++++++XX .X....X.+.O.OOOoXXoooooooOOOo",
"OOOOO+++OOO+OOOOOOOoOO+++OOoooOO@X oO+@@++OO++++OOOOooooooXooooo",
"oOoO+OOOOO+OOoXoooooooooooOoOO++oX X+++oO+OOoO+++++OOOOOOOOOOooo",
"OOOOOOO++O++@@+++++OOOOOOOOOOOOO+o .X@+O+OO+OO++OOOOOOoOO+OOoooO",
"OoOOOO+OOOOoOoOOoooOOOO+O+OOOOo++o  ..X O O +OO++@+OOO+++++OOoOO",
"oOOOOOoOoooooooooooO+OOooOooOoOOoX  @@oXooOOOOooooOoOO+OOOOOoooO",
"OOOOOOOOO++OO++OOOOOOoOOOoooooOoOX o+++@++++OOOOOoOOoooOO+OOoOOO",
"O+OOOOoooooO++OOOooooOOoooOOo$%O+X X+$%oOooOoooooooooOO+++++OOOO",
"++O+++++++OOOo++OO++@+++O+ooX#$oo. .o#$o+++OO+OOOOOOooO+OO+OOO++",
"++OoO++XoXXOO@+++@@+OoOOOOO+o@oO+O .X+X+oXoOooXoooXXooOO+++OooOO",
"ooXX.....XX..XoX..oooOooXOOOoo.... .XXX.XX.XO+OOOOoXXOOX...XoO+O",
"                    . .                .                        ",
"               .X....X.XXX..XXoXoOo....X....  ......            ",
"@+@@@@@++@@@@+.O@@+@++@@@@+@@@@@@@@@@@@@@@@+OO++++@@@@@@@@@@@+@@",
"@@@+++@+Oo@oOO.XOoo@@@+++O++OOOOOoOoooooOOoooo+O+++O+oOO+OO++++@",
"O++OOOOO+o$%++.o++$%@oO++OoooOOOO++OoOOOOOOoooOO+++O+++O+Oo+O++O",
"+++oOO++Oo#$@+ X++#$O+OOO++OOOOOOOOOOOOOoOooOOooooOOOO+OOOOOO+++",
"+OO+OoOO+OOOoo XOOoO+O+OOOOOOooOOOOOoOOooooOO+OOOooOO+++OOOO++++",
"++@OOOOOOO++++ X+oO+++OO+O+OoooooooOOOooooooooooooOOOOOOOOoOO+++",
"+++OOOOoOOOOOX  .o+++oooOOOOOoooXXXooooooooOOOOoOooOOOOOOO+OO++O",
"oooOOoOO+++OXX .O.O.o.@@++OOOOoO+OO+O+OOOOOOOooOOOOOOOOOOOOO+O++",
"O++++OOOOOO@@+ .Xo++O+++OooOOOooooXooooXXoXoooooooOOO+O+OOO++O+O",
"++OOOOoooooooX .@OoO+++++@+++OOOOOOOOO+@+++OOOOOOOOOOO+OOO+OOOOO",
"oO++OO++@@o+@o. +++O++++OOoO+OOOO+OO+OOooOOOooooooOOO+OO+OOOOOOo",
"OO+ooXoXo@$%oo. XX$%O++OoOO++OooXXooOOoOOOoooOOOOOOOO++OOoOOoooO",
"OoOO+OOO+X#$+. X@O#$+@+++Ooo@+++@+++O++++OO+O+++OOoooo++O+O+++oo",
"OOOooooO+OXoOo X++OoOXXoOoOXX.ooooXXXoOooXXXXX..X.oO+OOooooooo+@",
"           .                                                    ",
"     ...X. .XXX....XXXXXXXXXoX..XX...XXX..XoXXXX                ",
"@@+@OO@@@X +O+@@@@@@@+++@@+@@+o+@@@@@@@++@+++@+@@++@@@@+++++@@@@",
"OOOOO$%@OX +@$%o+O++@OOOO++O+O+oXoooOOO+++++OOOOOOO++OOOOO++O++O",
"O+OOX#$OO..o+#$XOOOO+OOOOO+OO+Oo+O++++O++@@+++OOOOOOO+OOOOoO++++",
"+O++@@@O@o.Xoo.OOoOOOOoooooo+OOooOOOO++O++OOOOOOOOOOoOoO++++O+++",
"OOOOOooO+X.OOOOOoOOOOOOOOOO+O+OOOOooooOOoOoOOoooO+++++++OOOoOO+O",
"OOOOOO+++X.++OoOoOOOoOooOOOO+OOOOoO+OO++++OoO+OOooooooooXooooOO+",
"OOO+oOOoO. +@++Oo+O+OOOOOOoOOOoOO+OoOo++++O+O+O+++O+@++++++OOOOO",
"++++++O@@o ooXOOoOOooooOO+OOOooooOooooOoOoooXXXooOoOooooOooOOOO+",
"ooOO+++++X o+@+++++++++OOOOOOOO+++@++O++++++++++O+++++++OO++oOoo",
"++O+OOXXXX XXXoOOoooooooOoOoooOoOOoOOO+OO+++OOOOOOOOO+++++O+OOOO",
"O+O+o$%O@X Xo$%++++++OOOOOoOOO+OoOOOOOOOOOoooXooooOOOO+O++++++++",
"+OO+@#$+@X oo#$oOOooOoooOOOO+O+OO++++@++++@@@@@+OO++Oo+O+OOOO++O",
"OOOOXXooX  XX..ooO@+OO++++OOOO++ooO+OXooOOoooXooO+oOoXooOO+++OOO",
"+++OOOoO+. +@oXo.OoOX.XooooOOX.XXXXoO+++oXo++OoXXo+O+++OOooo+O++",
"                                                                ",
"             ......X........XXXX...XXXooX......XX..... .XX      ",
"@@@@@@++@@@@@@@@@@@@@+@@@@@@@@@@@@@@@@@@@+++@@@@+++@@O +@@@@@@@@",
"O+O+++OoooOoooooOoO+OO+O+OOOOOOoOOOoOO++oO+OOoo++@OoOX o+o@@OOOo",
"+OO++++O+oOooOOOOOO+++OO+O++OOOOOOOOOoOOOoooOoOX@$%@@o O+@$%OOOO",
"OOOO+++OoOOOOOoooOOOOOO+++++O+++++OOO++++++++OO+O#$+@o +@X#$OOoo",
"OOOoOOO+++OOOO++++++++++++++OO+O++++OOO+OOOO+O+OOOO++O XoooO+OO+",
"oOooOOOOOoOOoOOO+++++++OoOOOOO+++OOOOOOOOO+OOOO++O+O@o +@++OooOo",
"ooooooOoOOOOOOOOO+++o+++++++OOooOooooOOO+OOO+ooOO+@OX. X++oOOOoo",
"oooooooOOOOOOOOO+O++++OO++++++++++@+++OO+++++@+++XOoOX XXoOOOooo",
"OooooOO+OO+O++++++++oOOOooooooooooooooooOOOO++OO+@@OoX +@@+OOOOO",
"XooOoOoO++++++OOoO+++++O+O+++@+OOO+OOO++O++++++++OoO@X XoXooOoOo",
"ooooooOOO+O+++O+++++OoOOOoOoooO++OO+++OoOoOO++++OO+++. X++oO+Ooo",
"XXooooOO+O+OOOO+O+OOOOOOOOoooOooOoooXooOoOOoO+++o$%XX  XXX$%Oooo",
"ooOOOooO+++++OOoooOOo+++O+Ooooo+O+++@+++@oOO@@+@+#$++o .OX#$OOoX",
"OoX.XooXoooooXooOOo.X..XXX.XXXoXoXooooo..XO+OOXXooO++X .oXXoOOOO",
"                                                                "
};
