/* XPM */
static char *c2c798895d7d49d78758b51e7ff27433Y5GV2sEKJnSoNOHn[] = {
/* columns rows colors chars-per-pixel */
"64 64 14 1 ",
"  c #513622",
". c #573A25",
"X c #67452C",
"o c #7D5234",
"O c #8D5A39",
"+ c #97613D",
"@ c #9F6741",
"# c #A86F45",
"$ c #B0784B",
"% c #B57A4D",
"& c #887F76",
"* c #B88155",
"= c #AC9D91",
"- c #D1B39B",
/* pixels */
"..............XXXXXXX...........................................",
"@#%%@@#@#o.$$$$$$$##%%#+++@+#%%#%%%%%#%%#%#%%%%%%##%%%%%##@@@+#@",
"+@@+O=-O+X.$%=-O+O+O+@@####+OO+++++@%%%####%##%@++OOooooooooO+++",
"oOO+O&=#@X.$o&=oO@@@+O+OoOO+O+@OOOO+++@#@@@+#@#@@@+@@@@@@+++++OO",
"+@++#+O@%o.+#+o+++O+@#@#@@@+O+++@@##%@@@%#%#@#+++OOOoooOoooOO+++",
"++@@@#+Oo .$#+++@+++O+++@OO+@@@@+O@@++O+O+++O+O+OO++++@@@@@@++++",
"OOOO+oOOOX.O++OOO+++O+O++++++++++#$@$$$$$$#$#$#####++O++OOOOOOOO",
"+@+++@%O+o.$O+@@+OOO++++@+++++@@@##+++O+@@@@@@@@++OO+O+oOO+++O++",
"+O++@+@%#o.@#+++OO++++++++@+++++++#@@@+O@@+++++++@#%#%#%##@+OO++",
"O@++@@++#O.$@@+o++OO++@@@@@+@++@@++@@+++++@@@##@#@@@+@#@@@@OOO++",
"++O@@@++@o.OoO@@+@+OOOoOO++++@++@#@+++OO+@++@+@@#@#@@@@@@@++O+++",
"@#@@O=-@OX.O@=-O+++++++++++@++#@@+##+++++OOOO++O+++@++@#++@+++++",
"#@+#@&=O@O.OO&=o+O++O++++@+#@#@@#@@O+@+++########@#@@@+@%%#@@@@@",
"##@+oXO#+O.%@oo@##+@+++++++#@##@+#@@@@+OOO@@@#@@+@+@##+@#@@OOO@@",
"++oo+++o@O.oo+@@oXXOOOoOO++@+OO++++OoOo++oXXoXXoooooo++++++@++@@",
"........                              X X X X   ................",
"....................XoXXooXXXXXXXXXX.X.X.X.X.... .........o.X...",
"%#%%%#%%$%@$@%%%#$*$*$$***************************$$$+.$$$$%%###",
"%%###%%%@O+#@@O+OooO+#@++OOO@#@###++OOOO++OO+OOOOO=-@@.$OO=-###%",
"+@@+O+O@@@@@@##@@@@@#+@++O+O+@@####%#%#@#@@@@@@#%O&=#O.$+O&=+@@+",
"@#@+@@@#@#@++++OOO+++O@+++O@@#@@@@+@+OO@OOOOo+OX XXoX .$o###@@@@",
"#++@++++@@@+@+OOOO+OoOOOOOOO+OOO+++O+OO+++@@#OO##%##%O.o$+++@###",
"@##++OO+OOOOO#@++OOO+OO+++++@@@#@#@@@++@+O++OOOOoO@$%X.$OO++@@##",
"@#@+++####@##@@+@$O$O$$$$$@+OO++@++O+++O+O+++@++O+$$o .o@++@@@#+",
"OOO++++++++O+O+++++++OOO++@@++++@@+OO++#@+++++ + $oX  .$@+++@+@@",
"@###@++OOOO++OoO+OoOOO+OoO+OOOOOO+O+@+++@O+O+OOOOo+#%O.oO@@@@@@@",
"##@@@@@@##@@#+@@++OOooOOOOO+OOOO+++O@++@+++++++##@@@#+.O@@++O+@+",
"O+@@O+O@#++#%@+O+O+++@#@+@#####@@++++++@+O+@+@+++o=-@O.o#+=-O@+O",
"++@+@+++@##+@@+#@@@+@OO++++@@+@+++++@###@@#@@+@#@o&=oX.oO+&=oOO+",
"+O+O++@@%##%@+OoOo@+OO#@@@#@@###@@##++++++OOOOOOO+o@XX.+#@OO@@OO",
"@++OoXoXXoOoXXooXXXXXXoOOOOO+oXXXo@+O+##O+@++ooOoXXXXX.XXXXOOO##",
"...........                                 ....................",
"...........XXXoOOOOooooooooOooooooXXXooXXX     XXXXX............",
"%###%%#%%O.$*$$$$$$$$$$*$$$$$****************$$$@$%$+$@@+@%%%#%%",
"++@+o=-@+ .$O###@#%####@#%###@#@@@#@++@OOO@@@@##%@o++OOo+Oo@@#@O",
"+@+@@&=%%o.$#=-#@@@O+OOoO+++@+O+@+@@#@@@++@@++++O+++@+++++@++##@",
"@+@#OX+##o.$#&=@OOO@##########+++OO+O+OO++OoOOOOO++O+OO++@@@@@@@",
"++++@+@%oo.$##+O++@++@+OO+@@@@+O++++O+@+++@@@+@++O+@O+++@++OO+@+",
"@++++@+++o.$@OO+++O+@#@@@+++@OOO++@+@@+++@@+++@@+#@@####@@@+OO+@",
"+++++@#%#o.X$oOO++++@+@@+@%%%@+OOO++++++@@++OOO++++@@@@+@@+++++@",
"@#@@@@@@OX.o%#@@OOOOO+OO++OoOOO@@+++++O+@+++OOOOOO+OOO++OOOOO+@@",
"OO+#@#+%#O  +@#@@###@@@@@+#OoOOOOOOO+++@@@#@++++O@+#####@#@@@+OO",
"@@+##@+Oooo   o o oooO++$$$$$$$@$@$+$O+++++OO+O++OO+##@@@##@@+++",
"+@+@#@##Oo. @oOO+@###@O++OOOoOOOOO++++@@@@@@+++OOOO+#@#+OOOO@@@@",
"@++#@=-Oo .##=-o++OOOOO++++OO@@####@@@@@@++OOOoooOO+##@%%%#####+",
"@@+O@&=@@o.@@&=o##%@#%####%%#@+O+@@@#@++++o+@@+@+++@#@##OO+O+@++",
"@@@@#@@#OO .#+OOoXXoXXO++OOooOO+OOX XOOoOOOoXo+OOoo+oXXoO@@+++##",
"..............                                      ............",
"...........XXXXXXXXXXXXXXoXXXXXXXXXXX XXXXXoXoooXXX.oX..........",
"%%%%%%************#%#%%**%%+@%***************$$$$$$##+.$$***$%%%",
"+@*#@#@@#+O++@++@@#@@+O+@+O###+@O@@@+OOO+++@++oOo=-@#o.$#=-o@$+O",
"@+@@#@@+O@@@@@@+++++@@######@@+@@++@+O+@+@@+O@##O&=#OX.$%&=@@+++",
"++++++@@@@+++++@++@@@#+@@@@@+@@@O+++++++@+++++OO@@OOOo.$ooX+@+OO",
"+++O++++@@##@@@@@#@#@####@@@#@@@@O++O++++++OOO+@@@#@%o.$%%#@+++#",
"O+OOOO+@@@@@@@+++O+@#@@#@@+@+@++@@++++O++@+++@+@+@#@@o.$#OOO+++O",
"OOOOO+++++@##@#@@@@#@@###@@##@@@+@+OO++O@@@#%#@@#+OO@o.o+OO+++OO",
"OoOOOOOOOO@@#@@@+++@#@++@@#+O+++@@@@+++++@+O+@##@@#@OX.O###@O+Oo",
"+OOOO++@@@@@@#######@+@++++@@+@@@@+@+@+@@@@%##@@#@##%O.O@O@O++++",
"oOO++O+@@@###@@@@+@@#@++++++@@#@@@#@++@@@@+@@@###@#+@X.o@@@+@O+O",
"OOOOOO++@@@@+@@+@@@@OO++++OOOO++++++O++OOOO@@@@+O=-@@O.oo=-o++OO",
"ooOO++@+@@#@@+OOO+++++++@+O+OO+++@@++@+@#@###@@#@&=OOo.o+&=o++OO",
"OO++@@@+#OOO++++@@@++@+OOOO++++OOOOOO++++@#####%@Oo@#o.O#oX+OOOo",
"+OooooO+O+++++++oooOOO+O@#+oXXo++++O+@++++++oooooooooX.XoXoO+O@+",
".........                            ...........  X   ..        "
};
