/* XPM */
static char *dark_oak_trapdoor1701551202[] = {
/* columns rows colors chars-per-pixel */
"64 64 57 1 ",
"  c #301D17",
". c #331F19",
"X c #36211B",
"o c #3A231D",
"O c #362523",
"+ c #3E2620",
"@ c #3D2C29",
"# c #412721",
"$ c #452A24",
"% c #4A2D26",
"& c #452E29",
"* c #4C2F28",
"= c #45312D",
"- c #4E302A",
"; c #53332C",
": c #58372F",
"> c #59382F",
", c #453433",
"< c #4D3532",
"1 c #4F3836",
"2 c #453A3C",
"3 c #4E3838",
"4 c #503531",
"5 c #593730",
"6 c #513937",
"7 c #5B3931",
"8 c #613D34",
"9 c #654037",
"0 c #674138",
"q c #694239",
"w c #4B4245",
"e c #45464E",
"r c #4C464B",
"t c #4D484E",
"y c #504548",
"u c #51484D",
"i c #454750",
"p c #474952",
"a c #4B4B54",
"s c #4C4E5A",
"d c #514C54",
"f c #4D5057",
"g c #4E515B",
"h c #515057",
"j c #51535E",
"k c #535662",
"l c #565A65",
"z c #585C66",
"x c #575A68",
"c c #5A5E6B",
"v c #5C5F70",
"b c #5D606E",
"n c #5E6171",
"m c #626475",
"M c #646679",
"N c #66697C",
"B c #686B7F",
/* pixels */
"bbbcbbxbkxblxbkbccccccbxbbzbcxcccccccccxzjbzbzlzbbzbbccbbzbbzbbk",
"ccbcbbbbbbbbbxkbccxcccccxbxxcccxccbccczcbzzjzzlbbbbbxxcxcxbbbbbb",
"xbllkbbbjbjjblbllkjccxbcklbcxcxgkxccccgkjzzczjjjbbblgkkbbxxkkjbb",
"cxlnkjbkljbxjblbkclkczcknclzcclbxgccckxcglzzjjbjbbbjknkxbzkkbjbk",
"cxlnxxbklgbblllljvxkxcckcxkbbzkccjccckxvkczzgkxgkbbkgngbbbbjnkbb",
"bblklbbxbllkbbbblljcxlclkkzzcbcjglccccksxccccggjbbbbgkxnbzzfjxbb",
"cbzbcbcbbbbbbbbkcccccccccccbcbbbcxccccclxzccccccbbbbbbbnbbbzbbjb",
"nnnMnMnMbbmnbmnbMMmmmMmmnmnmnmmnmMMMmmmmMmmMmMnmbnbnMMMnbbbbbnnb",
"vvccvclcbnnMmnmNMMNMMMmMMmmMMmMMMMmMMMnmMMMMmBMBmnNMNmbbbgllkxbb",
"xkjkkgssg,444-=4<<*41444*4-4-5;-<63-%<63*<-3633-6<464,@feeppfffg",
"xxlkllkkl@<--;;;-*%$%--;;;;;;-*--;--;----;--*%*;-%%%-%=fpffjkkkk",
"lxxxxlxlb@&*-;-%*%%---****;-:5:;;**;--;--;;-*;*-;>;--%,jfklkkkkk",
"clcxxcxxb2-::;-;:;;;;;;;;;-5;;;;;;-;;-;-;;;:::;:>>>>;%wzklllxxxx",
"xcxccccccw*%->7>55::55555;55>>77;;::::;--;:5;$%*;>-**&wbxlxbxxlb",
"ccccccccnt;:55>>5;;:;5:;;;;;:>:::;;:;--::;;--;;:77>>;;fjbxxbxlbb",
"ccccccccnt;:57>;-5;:;-:::5557778:**%;:>:5757:;;;>;;;;*rbbbbxbbxx",
"cccccvccbu-;-----%%;-:;;;%%%;-**%%***;;;;;;---$%%-;>;&rbbbbczclc",
"cccccccccd::::;;>:::;;:8777>::>>>;---;;7;;;;;--;>;>:5;fbcbcccccl",
"cccccccccd%---;%%----:;;;-;::::7>:;-;7>;;------;;;:::-dnzbbccclc",
"ccccccccbr-;;-;---%%-;::777:>7:**%%**%%%%*%%$%%->;;:>:ubcccclccc",
"ccccccccbr%-;;--*%--;::::>:%%;;;*%%%$*;;---;:;;;;::;--ybccccxccc",
"bcbbccczbr--%-%%%**--%-::;-::*;-;-%%%;-;:7:;;:;;>:>>:-ubzbcczccc",
"bbcczxxzzu;;;--%%*-**--;;;:;;*%-:;;%%$%;:--*%-;:;;;-%%umcbccbccc",
"bccczcccba%--%$%---***--;;;:;;-::;;;;-:8:--*-%%;---*;-abcccczzbc",
"zzbbbkbkbt&%%;>:::;;;;;;-;;;:;;:::-:;::-::;*--%%*;55;;dccczcxbcb",
"zbbbbbbbbt**;------****;;-*;:>--:;;:::7>>:;:;:;::;;*%%dczccccczc",
"kbzbbbblbt-*%:;-*:;;-;->:>>:;;:-%%#%*-;;;;;;;:;:;;;*%%tmczcxcccz",
"zzzzjbbbbf->;%%%%%##$%--%$%;;:*%%*:;;-*%-;;-;%-;;;;;;%tbcczccccz",
"bkzbblbbbd;::>:;--*-:>>788878:;;778>7::885;;:7;;;;:::-abxzbxzccx",
"jbllbbbbbj%--;>:;%-%##$*####$%:>:%$%*;*%$;:;;%#%%**%=-hzbbzzczbc",
"bblbbblbnjoooXoooo....ooo.oo.ooooXooooo#oooo..X....XX.fbzxxbzxcc",
"bzzbbbbbbjOXXXXX.oo.ooo.oo...oo.XXXXXXX.X..X........ Xfxbbccxccc",
"ccccccccbh@oo####$$$$$$$######%###%$######oo#####o##o+hvccccccxc",
"ncncccccbs&#$$%*%**%*%**$%%$%%%%%;;--%%%$%##%####%####tncccccccc",
"cvcccccmmu;::88757:7888885>558:58;:8887:;*;*;::7;;::;-ybcccccccc",
"vcccccccma:88557888887888888888878>887--777:;%%*;:;:8;yccccvcccv",
"bccvcccmbh%;*--;;;:::7::5::;;;:>::7:>87;;**;;%;*****%%ucccccccbc",
"ccccbcbcbd%;5;::;;;;;::5785;;:;;;:7:>::;:::;;;;;:;*::*unccccmccm",
"cccbbbcbma-;;;;;;:7::;:;;;-;*---;*;;:;::;;*;;;;**;;;**yncccccmcc",
"nvbccccccr$;;;-;;;;;:;;;;;;;;:;;;::;7::>::77:;:7:**;:*dncccccbcc",
"cccccccznw-;:;;:;;:;;;;-;-;:-;;;;;;;;*;**;:;;;;;555;;-dnccccccnc",
"cccczzcznw*;;:;;:7;;%%%-----;-;;;;*;;;;*%*;:;;*:5;;-;*tnccmccncc",
"nccczzllcr--;:::;::;;;;*%%%%*-;-%;;**;;;*;*;;;*%;;;5;*wcccccnccn",
"cccczzcccw%-;-;;;---;-;**-::;;%%*%;;;***;;;**:7;-;-;;*wmmcbbcccc",
"czcccczznt*-;;;;:;;;;;;;----$%-;;%%;*:;;**:;*;;;:;;::*wncnccnxcc",
"ccccxczcny%-*;;;-;:;--%%----585;:**%*;:;:;*;;;;;-;;;;*dmnncccccc",
"xcccccczbw**;;;;;--:::;:;;-:558877::;;;;;*;;;;;;;;;;;%ynczmccccc",
"cbccccczcy%*%;--%:;:::::88555588877::;;;;%***%*;;;%%;%wncncccccc",
"cccxccbcna$%-%----;;:----;8:5555::;:::>:;>--;>>;--;--;2vcccccccb",
"bbbbcvcbbt%;;---;;5:-::--:--;;;;;;;-%->7>;-%$%-;:5557;eccccccccc",
"bcbbccccmr*;;-;;;-*;;;*;558885;;;;;;---%;----;;85:;;;-2vcccccccz",
"czccvccccw$$$-%%;-;5:;;5:--%---;;;;:>:>;;--;----:;;;;*2cccczxczc",
"cccccxxxc,$*----*;$$*;5--;755:4-;;;5>>;;>>>;;-%%$$;;**2ckxzxzxzc",
"cxxxxxlll3*-%-%$%&-;5;;555;;;;55::::>;-------->;%%*&;-&jjgkkklkc",
"kkkggasss&%&%$$%==&&@$,-$%&$$$$&&*$&#$$$&&%*&&%*%*-&&-,pppppaahj",
"ggsppppsppgpsjstgsagassgsspissssashpdaapefkfeffpaasppppppppigpss",
"cccncmnvvvcvvcmnnnmnmnnvnnmnbccbmmvmcccnbzzbmzbbnncnnnbbbbxbbbcb",
"lccccccvcccccnccvccvcccvcbbcbccxcccvcczxzzzzzzbbnbcnbbxbzbbcxcxz",
"cclllcccclkjccnccxkccccxkkccbzzgkccxccjjzzzzzhjzcxbcgkkxccxggkxx",
"xlkvklccckvkxccckvxxnbcjvvkczckxxkccckkkfzzzzjmjccclknglzcllbgzb",
"cxlbxcccckncxcccknxkccclnnkcccjbckccnkxchzzzjjbkcccjlnkxbbkxbxzx",
"cclllvccclxgcnccllgccccckgvccclksccccxghlzzzzfgkccccgklcxbxgklbb",
"ccccvcvccvcccncvbxcxcczcccncczcccccczzxlzzzjzzlzccccbxxbxzzbbbxb",
"cccccccccccclccccccbxccccbxcclcccbbbczzzzzjbjzlcccvcbbbbbxxbbxzz"
};
