/* XPM */
static char *b1e11c2a41e64460d1fd8394b1519db4ZPiuA3nSmYTyTU2L[] = {
/* columns rows colors chars-per-pixel */
"64 64 184 2 ",
"   c #2E1E1E",
".  c #34211F",
"X  c #2E2121",
"o  c #352322",
"O  c #3C2623",
"+  c #3E2824",
"@  c #342729",
"#  c #372B2D",
"$  c #3A2B2C",
"%  c #3A2E31",
"&  c #3D3032",
"*  c #402724",
"=  c #432A25",
"-  c #492E27",
";  c #432E2A",
":  c #4A2F28",
">  c #4C3027",
",  c #4D3129",
"<  c #503227",
"1  c #53352B",
"2  c #59372D",
"3  c #57382E",
"4  c #5B3A2E",
"5  c #5D3B30",
"6  c #613D2F",
"7  c #623E31",
"8  c #664133",
"9  c #684133",
"0  c #684232",
"q  c #694232",
"w  c #684233",
"e  c #694233",
"r  c #694333",
"t  c #6A4333",
"y  c #6B4433",
"u  c #6C4533",
"i  c #684134",
"p  c #684234",
"a  c #694234",
"s  c #684334",
"d  c #694334",
"f  c #684235",
"g  c #694235",
"h  c #684335",
"j  c #694335",
"k  c #6A4334",
"l  c #6A4235",
"z  c #6A4335",
"x  c #6B4335",
"c  c #694236",
"v  c #694336",
"b  c #6A4236",
"n  c #6A4336",
"m  c #6B4336",
"M  c #6B4434",
"N  c #6B4435",
"B  c #6A4436",
"V  c #6B4436",
"C  c #6B4536",
"Z  c #6B4437",
"A  c #6C4434",
"S  c #6C4534",
"D  c #6D4534",
"F  c #6C4435",
"G  c #6D4435",
"H  c #6C4535",
"J  c #6D4535",
"K  c #6E4535",
"L  c #6C4635",
"P  c #6D4635",
"I  c #6E4634",
"U  c #6F4634",
"Y  c #6E4635",
"T  c #6F4735",
"R  c #6C4436",
"E  c #6C4536",
"W  c #6D4536",
"Q  c #6E4537",
"!  c #6D4636",
"~  c #6D4637",
"^  c #6E4636",
"/  c #6F4636",
"(  c #6F4736",
")  c #6E4637",
"_  c #6F4637",
"`  c #6F4737",
"'  c #6C4435",
"]  c #6F4837",
"[  c #6F4638",
"{  c #6F4638",
"}  c #6F4838",
"|  c #704736",
" . c #704737",
".. c #714737",
"X. c #704736",
"o. c #714836",
"O. c #704837",
"+. c #714837",
"@. c #714937",
"#. c #724936",
"$. c #734936",
"%. c #724937",
"&. c #734937",
"*. c #724837",
"=. c #734A37",
"-. c #724A37",
";. c #744A37",
":. c #754A37",
">. c #754B37",
",. c #764B37",
"<. c #774C37",
"1. c #724937",
"2. c #794D37",
"3. c #784D37",
"4. c #704638",
"5. c #704738",
"6. c #714838",
"7. c #724938",
"8. c #734938",
"9. c #734939",
"0. c #734A38",
"q. c #744938",
"w. c #744A38",
"e. c #754A38",
"r. c #744A39",
"t. c #754B38",
"y. c #764B38",
"u. c #764B39",
"i. c #764C38",
"p. c #774C38",
"a. c #774D38",
"s. c #764C39",
"d. c #774D39",
"f. c #764D39",
"g. c #754C3A",
"h. c #774D3B",
"j. c #754A38",
"k. c #784D38",
"l. c #794D38",
"z. c #784D39",
"x. c #794D39",
"c. c #794E38",
"v. c #794E39",
"b. c #7A4E38",
"n. c #7A4E39",
"m. c #7B4F39",
"M. c #794D3A",
"N. c #7A4E3A",
"B. c #7B4F3A",
"V. c #794E3C",
"C. c #7A4E39",
"Z. c #7C503A",
"A. c #7C503B",
"S. c #7F523A",
"D. c #7E513B",
"F. c #554B54",
"G. c #584C56",
"H. c #574E59",
"J. c #594F59",
"K. c #54525D",
"L. c #5A535D",
"P. c #60545D",
"I. c #545562",
"U. c #5B5662",
"Y. c #575864",
"T. c #5A5966",
"R. c #5C5C6B",
"E. c #5D5F70",
"W. c #615A65",
"Q. c #625D6B",
"!. c #5E616E",
"~. c #5F6171",
"^. c #61626E",
"/. c #626474",
"(. c #696575",
"). c #656976",
"_. c #686877",
"`. c #646779",
"'. c #696779",
"]. c #66697B",
"[. c #6B6A7C",
"{. c #80533C",
"}. c #82533C",
"|. c #6B6D81",
/* pixels */
"= 3 } 7 i 8 7.w.N.V R i 7 i  .= = 7.i i R R i  .i 8 t i R 8 7 = = 7 4 w.R R s.$.N.w.$.R N.{.t - - 7 8 N.N.7.B.7 V 8 5 5 i 5 5 O ",
"= 4 8 8 7 7 R R $. .8 R i V R = * R i R 7 R R i i 8 i R  .V 5 = + 7 w.$.R $.s.$.N.N.N.R $.A.R - , 8 R w. .t [ 5 i i 4 7 8 4 7 = ",
"= 7 R R 7 R 7 R $.w.i R R i 7.O = 8 8 7.8  .R R i i t R i V 4 = = t N.s.$.$.N.s.N.N.s.u $.A.<., = 7 R $.R i i 7 i i 5 i [ 7 7 * ",
"= R V i 8 R 7 8  .w.R N.$.V s.= = R t 7.8 R R  .R i i R i R R = -  .R N.R s.A.s.N.N.N.R 8 $.$.- = R R R R 8 i 7 i 8 5 i [ 4.R = ",
"= 8 i 7 s.$.t i $.$.s.N.w.$.s.- = $.R 7.8 i R $.7.i i R t  .w.= - 7.V N.$.N.A.s.2.A.N.y 8 w.R - , R i R R 7 V 7 V 7 7 V R 5 8 O ",
"+ 7 8 R A.s.R $.N.$.w.N.$.$.7.- = s.R R i R R 7.w.R R R R w.7.= = s.$.N.w.$.N.$.s.N.N.t t $.7 = = 7 R R i 8 i i V 7 8 R R 7 5 * ",
"= 7 5 i s.R R $.7.R 8 $.$.$.7.- = w.i R $.8 R R $.R V R V R V - = s.$.w.t R 7.R R  .$.R 7 V 3 = + 4 7.R i 8 V i i 7 V 8 V 7 5 + ",
"O 1 2 , 8 5 7 8 5 4 7 7 8 7 8 + . 7 5 4 3 4 5 5 7 7 5 5 7 5 5 = O i 7 8 4 4 5 5 4 4 5 5 3 : < O O 1 8 4 4 4 4 5 7 3 5 4 4 7 1 o ",
"@ + O o = = = = = = , = = = - o X : = O o = : - , = : = = = = @ o = = = = O = = = = = O O = : $ $ > = = = = = = = O = + + = , @ ",
"R.R.R.T.T.T.T.T.T.U.U.L.K.U.K.R.R.U.U.U.L.T.U.L.U.U.U.L.U.L.U.R.R.U.L.U.U.T.T.T.T.R.T.U.U.U.R.R.R.R.U.K.L.T.U.T.T.T.U.U.R.U.T.R.",
"~./.I.K.Y.T././././.T.K.Y.Y.!.^.!./.Y.I.T.T.^.!.!.!.Y.I.K.T.!././.~.R.I.T.T././.~.~.T.I.R.Y.^./././.Y.I.I.Y.!.^./.^.Y.I.R.T./.~.",
"~.R.R.`./.I.R././.!.R././.Y.R.!.!.R.Y./.`.T.!.!.!.R.Y././.T.R./.!.!.T.`.`.I.R./.~.R.R.].`.R.R.!./.R.R.`./.K.R././.~.I.`.].I.R.~.",
"!.R.Y.].].R.R././.^.Y.].].T.R./.!.R.Y.].].T.R./.^.T.I.).].Y.R.!.~.R.Y.].].R.~././.R.R.|.|.R.R././.R.R.|.[.!.~./././.~.|.|.E.~./.",
"/./.R.!.R.R././.`./.T.!.R.T././././.T.!.R.T././././.T.^.R.T././././.R.R.R.T.`.`././.R././.R.`./.`./.R./.R.R.`.`./.`.R.^./.R./.`.",
"[.[.[.Q.W.W.L.L.U.L.L.W.T.W.W.[.[.(.U.Q.Q.Q.W.W.W.W.Q.T.J.U.W._._.T.W.W.T.Q./.Q.Q.W.U.W.Q./.[.[.[.Q.Q.U.W.W.Q.W.^.W.P.U.U.W./.|.",
"$ - , 1 t 8 R u $.$.$.t t 7 7 ; $ - 4 4 1 4 R 8 R 8 4 6 R y R + $ 7 8 7 t 4 3 4 4 7 8 7 , : ; # $ 7 8 t R 8 t u 4 t R R V  .8 O ",
"< $.$.N.}.m.{.{.}.}.}.N.N.$.N.3 = t N.D.R s.}.A.}.{.$.A.}.}.}.> - m.m.m.A.N.N.w.N.x.N.D.4.F 8 - O 7.w.{.}.}.A.}.$.}.}.m.A.}.A.> ",
"< $.2.}.}.A.}.A.}.N.m.N.$.$.$., = t w.N.R $.}.2.}.N.$.N.A.A.N.> < w.i s.$.$.w.$.w.w.N.$.w.8 8 , =  .$.N.A.N.N.A. .N.N.$.N.A.N., ",
", 8 $.A.N.A.$.N.N.$.$.$.R R i , = 7 N. .7 $.D.$.N.$.$.N.N.$.$.< - R i R R $.$. .R R  .$.R 7 8 = = N.R N.N.$.2.$.i w.$.$.$.A.<.> ",
"> R V w. .N.$.$.N.R $.R 8 R i = = i R R 5 $.N.$.N.$.$.$.N.s.w.- = R V V t V V R R  .$.R $.7 i = - N.V $.$.$.$.R 8  .$.R $.N.$., ",
"- V t $.$. .i $.N.R R R 7 i i = , 5 5 7 8 R w.$.N.$.y R $.$.N.= - 8 t R t 7.i i R R $.R $.i 8 = - A.t $.w.$.$.t 8 R w.R  .N.s.1 ",
"- R R R R  . .R N.$.$.R 8 i 8 O = 8 7 7 R i R $.s.$.R y $.w.i = = 8 i i 8  .t R R R  .R $.$.t - = N.8 7 w.w.R 8 t $.$.i V w.$.1 ",
"- i y R  .R $. .N. .s.R 7 8 R + o 5 i 7 R V i R V 7.R R N.R 7 = , R i i i 7.8 $.$.$.$.R $.$.R , + s.R R s.$.$.8 R R R V R s.N.- ",
"- t R i $. .R R s.$. .$.8 8 R : = i 8 7 i i 8 R i  .i $.w.8 7 = = $.R 8 R 7.t s.$.N.N.R $.R 8 = = 4 $.$.w. .$.4 i R $.R $.N.s.= ",
"- V R  .i i $. .N.$.$.7.t R 7.< - R 7 i i 8 7 R 8 R R w.$.R 5 - + 7 8 i R 7.$.$.<.2.$.R 7.V 4 - = 4 R R i R 7.4 R R $.$.$.N.s.- ",
"- R w. .R R  .R w.R s. .8  .R : = V 7 i V 8 7 V i R i w.$.s.8 = = 5 R 8  .N.R $.$.N.$.R R w.V 1 = 7 R 8 i V $.4 s.R  .$.$.$.w.- ",
"+ $.w.$.R V  .$.$.i w.$.i R 7 = = R 7 8 i i 8 i R $.7 w.N.N.$.= = 7 4.8  .7.V 7.R $.R R i 7.i - = 7 R 7 i R R 7 N.R $.R R  .w.= ",
"O 5 R $.$.$.R w.$. .$.$.i i 8 = - 7.5 5 8 7 7 R R $.7 w.s.$.$.- = R 4.i 7.R R $.R $.$.R R $.7 O = 7 i 5 i R i i $.V R i R R R O ",
"o 4 t R R i i $.$.R $.$.V V V = : w.5 5 8 7 8 R R t 7 w.w.$.N.< = V 7.i w.R  . .$. . . .w.8 5 = = 7 R 8 8 R V R  .t i i R  .5 O ",
"O 7 t $.R t R  .$. .w.$.i R 7.= : 7.7 4 i 7  .i R 5 8 $. .7.s.< = 4 V V $. . .$.R $. .R 7.i 7 = = R 7.i 4 w.8 $.$.R R i  .8 3 = ",
"= 7 R w.i 7 i  .$.$.N.$.R R $.= O 7.8 5 i 8  .t 8 8 7 i $.w.8 = = 7 s.t  .$.R $.R R R R R w.V = = V R i 7 w.7 R  .R R  .w.$.w.: ",
"= 4 t $.R 7 R i $.R s.$.R R w.= = 7.t 7 8 R $.i i R t R $.$.7 = = t m.t  .w.$.R R $.R i i i 7.O + i R R 7 7 4 V  .R $.R $. .V = ",
"= 4 R $.R R  . .w. .m.$.R R 7.= - N.R t $.$. .V R R t 7. .R t - =  .s.R $.$.R R R i R i i R 3 = o 4 R R 7 i 4 i 7.i R R  .$.R = ",
"= 4 R 7.$.R R $.s.$.N.R 8 R N., - N.$.8 $.$.$.i R t t 7.w.w.R - - s.$. .$.$.R V i t i R V i 3 = O 4 R i 7 8 4 8  .i R R R $.s.: ",
"= R R w. .$.R $.$.$.N.R t R s., = $.$.y $.$.$.R R  .R w.$.D.$.= = ] $.$.$.w.R i i i R i R i 4 = + 8 R i 7 7 5 i 7.t R R $.$.s.< ",
"= $. .w.$.w. .w.<.$.N.y V 7.7.= = $.s.R y w.$.R $.$.t w.$.7.7 = + 5 A.$.$.<.$.R V R R V 4.i 5 = O i i V 7 7 7 R 7.t  .R $.$.s.- ",
"O 8 R w.s.$.$.$.<.$.N.y V w.8 = = $.$.y R w.s.R $.$.y $.w.8 R - = 4 $.$.N.N.<.R  . .R  .$.i 7 O O 4 R R 8 7 R R N.R 7. .$.N.R O ",
"= 3 $.$.w.$.$.s.$.$.w.t t R 8 = = w.w.6 R R s.$.$.$.R 7.s.t R , = y N.$.<.N.$.$.$. .i R $.i 7 = O 4 R R R 6 w. .s.$.$.R t $.s.- ",
"= 3 R $.w.$. .$.s.$.w.t t 7.N.= = $.s.8 $. .N.y  .R V R w.R  .- - 7.$.$.N.$.s. .R $.R R $.R $.= O 3 7.R R 7 N.R N.$.R R 8 R 7.< ",
"= 4 w.$.w.w. .w.$.R  .R t $.7.= = V A.t  .R $.7 i t V R 7.R s.= = R  .$.N. .7. .R $.s.$.w.R N.- = 7 w.$.$.R w.R s.R R i 8 R R : ",
"= 7 N.s.$.w.$.$.$.R $.t  .w.7 = = $.w. .t R R 7 R 8 7 R R $.R = - $.7.R $.R $. .V  .N.$.$.t w.- - w.7.V $.R 8 w.s. .R R t R 8 = ",
"- R s.$.$.<.$.$.w.w.$.R  .V R > = w.s.$.R R R 8 i 7 8  .R 7.7 - = 7. .V $.R $.R R R $.$.R t 8 = = w.$.R s.$.8 $.$.$.R $.R R 7.= ",
"= R N.$.$.$. .R $.7.w.R t N. .- = $.w.7.i R 7.8 i 7 R R V R i - O R $.R R R R R V  . . .R $.4 - O R $.$.N.8 i w.$.$.R $.R R  .: ",
"+ $.N.$.$.N. .$.s.$.s.R t s.N.= - w.$.s.R R R i 8 7 R R R 7.t = - 7.R  .$.R R R i R  .R i 7.t - = 7 w.w.A.7 8 s.$.$.R $.s.$.V = ",
"+ 4 N.w.<.N. .$.N.w.w.8 V w.N.= , 7.$.7.$.t i i i 7 t R R w.$.- , i R R 7. .R 7.R t 7.R R  .w.- = i w.w.s.t 7 w.$.$.$.$.w.8 7 - ",
"= 3 s.7.$.N.$.N.w.R R i V w.R * , w.w.s.$.i i w.R t R $.w.N.<.< - $.$.$.7.R w.$.$.8 R R R $.V - O V 7. .$.7.7 V s.$.$.$.N.V R , ",
"= 4 $.$.R s.$.$.7.V 8 8 i R 7.+ + i R 7.$.R 8 w.V 8 R R w.$.$.< = ] 7.$.R i R $.8 7 R R i i 7 = O 5 8 V 7.8 8 7 ] $.R $.N.R V > ",
"+ 8 8 7 7 8 7 8 7 5 1 1 5 5 4 .   4 5 7 7 7 4 7 4 4 4 7 8 8 8 > o 4 8 5 5 5 5 7 4 3 , 5 5 4 4   o , 3 5 5 4 1 4 7 7 5 8 V 8 7 = ",
"$ , = = = = = : : = + + = + : o X = = - - = = + + O = = = > , o o = , , : : = = = = O + = + = @ @ O O = : , + = : , = : = : 4 + ",
"R.U.L.L.L.L.L.L.J.H.U.U.L.H.H.U.T.U.L.F.F.F.L.U.U.L.L.K.L.L.U.Q.T.U.L.F.F.G.F.L.L.L.L.K.U.T.T.R.R.T.L.L.H.L.U.U.L.L.L.J.F.T.T.T.",
"/./.R.K.I.R././././.R.I.I.R.`./././.R.I.I.T./.`.`./.R.I.I.R.`.`.`./.R.K.I.R././././.R.I.I.R./.`.`./.R.I.I.R./.`.`./.R.I.I.R././.",
"/.R.I./.`.K.~./.~.!.I.`.`.K.~././.R.I.`.].I.!./.`./.I.`./.I.~.`././.K.`./.K.R.].`.~.I.`./.I.~.`.`.~.I./.`.I.~.`.`./.Y.`.`.I.~./.",
"/.R.R.[.].R.R././.R.R.|.].~.R./.`.~.~.|.|.R.~./.`.~.~.|.|./.~.`.].~.R.|.].R.!.`./.~.R.[.|.~.~./.`.R.R.|.|.~.~./.].~.R.|.|.~.~./.",
"/./.T././.Y././.`./.T./.].T./././.`.R././.R.`.`.`.`.R./.`.R.`.[.[.].R./.~.R.`.`.`.`.R.`.R.T./././.`.R././.R.`.`.].`.R./.~.R./.`.",
"|.[.`.'.[././._._.`._./././.'.|.|.[././.Q._.(.[.[.[._.`././.[.|.|.[./.Q./.[._._._./././.'._.[.[.|.|.[./.Q._._.[.[.[././.Q.[.|.|.",
"% 3 : , , 4 4 7 4 1 , 2 2 4 < $ $ = 1 6 7 7 4 4 , > 6 4 7 3 < $ $ 1 7 t 7 4 7 1 4 7 1 4 1 4 , % & , < 4 6 4 2 3 < 4 4 7 4 3 = $ ",
"O 7.i [ R w.w.A.{.$.$.N.$.N.B.- 1 w.$.}.{.m.$.D.w.R {.N.N.w.$.- = N.{.N.w.N.N.N.A.}.$.}.N.D.$.: = $.N.{.A.m.N.{.$.A.$.N.N.B.8 = ",
"= 7.8 R R w.N.N.A.$.$.w.N.N.R - 1 R w.}.N.N.$.w.i i s.$.$.s.w.= , s.N.w.w.s.w.s.s.m.$.A.s.Z.$.> - $.N.A.A.$. . .$.N.w.N.$.N.7 = ",
"O i 8  .R $.w.s.s.R $. .N.$.8 - - 7 8 N.w.N.$.R 7 R R R $.$.R - - 7.$. .R R w.$.$.w.w.u $.A.$.- 1 s.s.N.N. .R t $.s.R $.$.R 7 : ",
"+ 8 7 8 R R $.N.A.y w.R s.N.8 - = 7 R A. .R $.i t i  .i V R 7.- = w. .R 8 8  .R R $.$.u y A.$.> 1 $.R A.$. .R 8 8  .R R  .w.7 + ",
"+ V 8 i V R $.s.A.R $.$.N.s.8 - > u R 7.R R  .i 7 i R i R i 3 O o V 7.R t R  .R 7.w.w.R 8 A. ., = i $.N.w.R 8 5 4 i R 7. . .7.O ",
"+ i 8 i R $.w.N.s. .R $.$.R 7.: : i 8  .R R 7.R 4 i i i i F 4 = O 5 w. . .R w.R 7.w.$.$.7 A.$.= - 8 $.s.7.R 4 7 4 7 i $.R R 7.= ",
"= 7.i i R R $.N.$. .R V 7.8 i = O 5 7 8  .R R i 2 R i i i  .i = + 5 s. .$. .s.R  .N.N.$.7 N.8 = = 4  . .w.R 4 7 4 7 R i  .R i - ",
"O 5 i i R $.$.A.N.t R 8 V R i = + w.$.7. .R 7.7 i i i i i 8 V O = 3 R $.w.R s.7.R m.}.$.R {.4 = = 4 $.R w.7.R 8 R R 5 7 i R R = "
};
